<?xml version="1.0" encoding="utf-8"?>
<!-- Generator: Adobe Illustrator 25.3.1, SVG Export Plug-In . SVG Version: 6.00 Build 0)  -->
<svg version="1.1" id="圖層_2_1_" xmlns="http://www.w3.org/2000/svg" xmlns:xlink="http://www.w3.org/1999/xlink" x="0px"
	 y="0px" viewBox="0 0 449 449" style="enable-background:new 0 0 449 449;" xml:space="preserve">
<style type="text/css">
	.st0{fill:none;stroke:#7C7C7C;stroke-width:5.4799;stroke-linecap:round;stroke-linejoin:round;stroke-miterlimit:10;}
	.st1{fill:none;}
	.st2{fill:#487C2E;}
	.st3{fill:#23749F;}
	.st4{fill:#4EB5D1;}
	.st5{fill:#D03400;}
	.st6{fill:#FFFFFF;}
</style>
<g>
	<g>
		<path class="st0" d="M118.5,273.9c3.6,2.4-0.9,10.9-0.9,10.9c2.9,1.9,30.2,0,41.4,2.1c5.9,1.1,8.5,3,15.8,6.2
			c6.4,2.8,16.4,15.9,16.4,15.9s4.8,4.3,1,10.2c-3.8,5.8-18.6,1.4-28.4-12.3c-1.8-2.5-2.5-3.8-5.6-5.2c0,0-7.8-5-15.1-4
			c-12.4,1.8-25.4,0-25.4,0c-8.1-2.4-14.7,13.6-20.3,26.3c-1.1,2.5-3.6,11.6-6.4,22.2c-1.4,5.2-7,8.1-12.1,6.2
			c-6.5-2.5-12.7-4.8-19.3-7.3c-4.6-1.7-6.9-6.7-5.4-11.3l17.3-52.4c0,0-1.7-7.6-7.6-11.4c-5.8-3.8-22.9-16.1-16.9-23.6
			c6-7.6,6.3-3.2,6.3-3.2"/>
		<path class="st0" d="M199.4,226.6c-31-22.2-53.6-41.4-80-69C102.6,140,87.2,121,69.9,103.8c-15.8-15.9-34.6-32.3-51.8-7.5
			c-12.9,18.7-15.2,39.2-9,60.6c9.4,32.5,30,55.8,62.4,70.5l136,59.8c8.8,5.6,27.5,15.6,34.9,5.5c6-8.2,14.7-20.7-7.3-35.8
			C235.2,256.9,199.4,226.6,199.4,226.6z"/>
		<path class="st0" d="M147.4,261.9c-4.8,1.6-18,5.9-20.9,6.6c0,0-10.6,7.2-18.9,4.8c-7.5-2.2-16.1-6.2-31.3-12.3
			c-2.8-1.1-18.2-12.3-19.8-14.9c-4.1-7-15.2-17.2-18.8-19.4c-10.4-6.3-17,8.1-30.9-10c-0.6-0.8-0.9-1.6-1.1-2.6
			c-0.6-3.8-1.1-11.1,4.6-7.4c0,0-8.1-8.6-1.3-10c2.9-0.6,3.9,1.5,3.9,1.5s-6.8-7.5-4.1-11.8c3.8-5.9,9.2,0.9,9.2,0.9"/>
		<path class="st0" d="M137.9,257.6c0,0-17.6,6.5-25.3,4.5c0,0-14.5-2.7-20-8.2c0,0,7-5.2,7.5-12.8"/>
		<path class="st0" d="M68.1,227.5c0,0-6.8,4.7,1.4,8.1c0,0-23.6-13.3-30.2-17.7c-6.6-4.3,10.1,2.1,4.7-7.3"/>
	</g>
	<line class="st0" x1="55.7" y1="344.8" x2="21.6" y2="447.5"/>
	<path class="st0" d="M80.9,353.9l-10.2,28.7c-1.8,5.2,0.6,11,5.7,13.3l109,49.9"/>
</g>
<path class="st0" d="M51,447l8.3-28.3c1.8-6.1,8.5-9.3,14.4-6.8l85,36.3"/>
<path class="st0" d="M112.6,407.7c53-57.6,123.4-89.3,207.8-89.3c23.2,0,45.7,2.8,67.3,7.9c0,0,43.3,9.7,57.3,20.7"/>
<path class="st0" d="M85.9,444.5c6.6-10.3,6.6-11.2,14.4-20.5"/>
<g>
	<path class="st1" d="M245.6,389.9c-0.1-0.8,0-1.6,0.5-2.5c0.4-0.9,1-2,1.8-2.8c-1.9,0.9-3.9,2.3-4.7,4.2c-0.9,2-0.2,5.3,2.2,5.8
		c0.7,0.2,1.4,0.2,2.1,0.1C246.3,393.3,245.4,391.6,245.6,389.9z"/>
	<path class="st1" d="M313.5,380.3c0.7,0.1,1.4,0.1,1.9,0c0.4-0.1,0.9-0.1,1.2-0.2c0.4-0.7,0.7-1.2,0.7-1.8c0-0.1,0-0.3,0-0.5
		s-0.1-0.4-0.2-0.7c-0.1-0.3-0.3-0.3-0.6-0.4c-0.8,0.4-1.6,0.9-2.2,1.4C313.8,379,313.5,379.7,313.5,380.3z"/>
	<path class="st1" d="M315.9,373.7c-0.3,0.1-0.6,0.3-0.9,0.5c0.6,0,1,0,1.6,0c0.6-0.2,1.1-0.4,1.7-0.4
		C317.8,373.2,316.7,373.4,315.9,373.7z"/>
	<path class="st1" d="M321.1,374c0.6,0.1,1.1,0.3,1.7,0.5c-0.1-0.9-0.7-1.6-1.8-1.9c-0.2,0-0.4-0.1-0.6-0.1
		C320.8,372.9,321,373.4,321.1,374z"/>
	<path class="st1" d="M257.3,384.6c0.6,0.1,1.1,0.3,1.7,0.5c-0.1-0.9-0.7-1.6-1.8-1.9c-0.2,0-0.4-0.1-0.6-0.1
		C256.9,383.4,257.2,384,257.3,384.6z"/>
	<path class="st1" d="M249.7,390.9c0.7,0.1,1.4,0.1,1.9,0c0.4-0.1,0.9-0.1,1.2-0.2c0.4-0.7,0.7-1.2,0.7-1.8c0-0.1,0-0.3,0-0.5
		s-0.1-0.4-0.2-0.7c-0.1-0.2-0.3-0.3-0.6-0.4c-0.8,0.4-1.6,0.9-2.2,1.4C250.1,389.6,249.8,390.3,249.7,390.9z"/>
	<path class="st1" d="M309.4,379.2c-0.1-0.8,0.1-1.6,0.5-2.4c0.4-0.9,1-2,1.8-2.8c-1.9,0.9-3.9,2.3-4.7,4.2c-0.9,2-0.2,5.3,2.2,5.8
		c0.7,0.2,1.4,0.2,2.1,0.1C310,382.7,309.2,381,309.4,379.2z"/>
	<path class="st1" d="M252.2,384.3c-0.3,0.1-0.6,0.3-0.9,0.5c0.6,0,1,0,1.6,0c0.6-0.2,1.1-0.4,1.7-0.4
		C254,383.9,252.9,384,252.2,384.3z"/>
	<path class="st1" d="M404.6,394.5c-0.9,0-1.9,0.6-2.8,1.2l-0.1,0.1c-0.7,0.6-1,1.8-1.4,2.8C403.3,397,404.3,395.4,404.6,394.5z"/>
	<path class="st1" d="M334.2,412.4c-0.3,2.5-0.6,5-0.9,7.8c2.4-1.5,5-3.2,6.8-5.4c0,0,0,0,0.1,0c1.3-1.3,2.1-3.3,2-3.9l0,0
		C341.9,410.6,340.2,409.9,334.2,412.4z"/>
	<path class="st1" d="M343.9,418.3L343.9,418.3L343.9,418.3L343.9,418.3z"/>
	<path class="st2" d="M249.5,396.7c0.4,0.4,0.9,0.7,1.2,0.9c1.3,0.9,2.9-0.9,1.6-1.9c-0.1-0.1-0.2-0.1-0.3-0.2
		c0.6-0.3,1.1-0.6,1.6-0.9c1.2-0.8,2.4-1.8,3.3-2.8c3.2-1.8,5.6-5.1,3.6-9c-2.5-4.7-10.7-2.3-14.2-0.5c-2.8,1.4-5.7,3.6-6.2,6.7
		c-0.6,3.3,0.9,6.6,4.2,7.7C246.2,397.5,247.9,397.2,249.5,396.7z M253.6,387.9c0.1,0.2,0.1,0.4,0.2,0.7c0,0.2,0,0.3,0,0.5
		c0,0.6-0.4,1.2-0.7,1.8c-0.4,0.1-0.9,0.2-1.2,0.2c-0.6,0-1.2,0.1-1.9,0c0-0.6,0.4-1.2,1.1-2.1c0.7-0.6,1.3-1,2.2-1.4
		C253.2,387.5,253.5,387.7,253.6,387.9z M252.9,384.8c-0.5-0.1-1.1-0.1-1.6,0c0.3-0.2,0.6-0.4,0.9-0.5c0.8-0.4,1.9-0.6,2.5,0.2
		C254.1,384.6,253.4,384.6,252.9,384.8z M258.9,385c-0.6-0.3-1-0.4-1.7-0.5c-0.1-0.6-0.3-1.1-0.6-1.5c0.2,0,0.4,0.1,0.6,0.1
		C258.2,383.4,258.7,384.3,258.9,385z M243.2,388.7c0.9-1.9,2.8-3.2,4.7-4.2c-0.7,0.9-1.3,1.9-1.8,2.8c-0.4,0.8-0.5,1.7-0.5,2.4
		c-0.2,1.8,0.7,3.4,1.8,4.8c-0.7,0-1.4,0-2.1-0.1C243,394.1,242.3,390.7,243.2,388.7z"/>
	<path class="st2" d="M321,381.3c3.2-1.8,5.6-5.1,3.6-9c-2.5-4.7-10.7-2.3-14.2-0.5c-2.8,1.4-5.7,3.6-6.2,6.7
		c-0.6,3.3,0.9,6.6,4.2,7.7c1.6,0.6,3.3,0.3,5-0.2c0.4,0.4,0.9,0.7,1.2,0.9c1.3,0.9,2.9-0.9,1.6-1.9c-0.1-0.1-0.2-0.1-0.3-0.2
		c0.6-0.3,1.1-0.6,1.6-0.9C318.9,383.4,320,382.4,321,381.3z M317.3,377.3c0.1,0.2,0.1,0.4,0.2,0.7c0,0.2,0,0.3,0,0.5
		c0,0.6-0.4,1.2-0.7,1.8c-0.4,0.1-0.9,0.2-1.2,0.2c-0.6,0-1.2,0.1-1.9,0c0-0.6,0.4-1.2,1.1-2.1c0.7-0.6,1.3-1,2.2-1.4
		C317.1,377,317.3,377.1,317.3,377.3z M316.7,374.3c-0.5-0.1-1.1-0.1-1.6,0c0.3-0.2,0.6-0.4,0.9-0.5c0.8-0.4,1.9-0.6,2.5,0.2
		C317.8,374,317.3,374.1,316.7,374.3z M322.7,374.5c-0.6-0.3-1-0.4-1.7-0.5c-0.1-0.6-0.3-1.1-0.6-1.5c0.2,0,0.4,0.1,0.6,0.1
		C322,372.9,322.6,373.6,322.7,374.5z M309.1,383.9c-2.4-0.6-3-3.8-2.2-5.8c0.9-1.9,2.8-3.2,4.7-4.2c-0.8,0.9-1.4,1.9-1.8,2.8
		c-0.4,0.8-0.5,1.7-0.5,2.4c-0.2,1.8,0.7,3.4,1.8,4.8C310.5,384.2,309.7,384.1,309.1,383.9z"/>
	<path class="st2" d="M357.9,390.9c-0.4-0.4-0.8-0.7-1.2-0.8c-0.2-0.1-0.5-0.1-0.7-0.2h-0.2h-0.2c-0.2,0-0.2,0-0.4,0
		c-0.9-0.1-1.9,0.1-3,0.6c-0.4,0.1-0.9,0.6-1.2,1c-0.4,0.6-0.6,1.1-0.6,1.5c0,0.1,0,3.7,3.7,4.4c0,0,0.1,0.1,0.2,0h0.2l0,0
		c0.2,0,0.3,0,0.5,0.1c0,0,0.3,0,0.4,0h0.1c0.1,0,0.2,0,0.4-0.1c0.2,0,0.5-0.1,0.7-0.2c0.8-0.3,1.3-0.8,1.8-1.4
		c0.2-0.3,0.3-0.7,0.5-1.1c0.1-0.4,0.1-0.8,0.1-1.2s-0.2-0.9-0.4-1.3C358.5,391.7,358.2,391.3,357.9,390.9z"/>
	<path class="st2" d="M397,412.7l-2.3-0.8c-6-1.9-12.2-3.9-16.5-7.8c2.1-3,4.4-6,7-9.1c0.9-1.1,0.9-2.8-0.3-3.7s-2.8-0.9-3.7,0.3
		c-3.4,3.9-6.2,7.6-8.6,11.4c0.3-0.9,0.7-1.8,0.9-2.8c0.5-1.4,0.9-2.8,1.4-4.1c0.2-0.4,0.2-0.9,0.1-1.2c-0.2-0.9-0.9-1.8-1.8-2.1
		c-1.3-0.4-2.8,0.4-3.3,1.8c-0.4,1.2-0.9,2.6-1.3,4c-2,5.9-4.3,12.4-3.5,18.5c0.1,1.1,0.9,2.1,2.2,2.2c1.1,0.2,2.3-0.4,2.8-1.3
		c1.7-3.3,3.4-6.4,5.3-9.4c5.2,4.4,11.9,6.6,17.9,8.4l2.3,0.7c1.3,0.4,2.8-0.4,3.3-1.7C399.1,414.6,398.5,413.1,397,412.7z"/>
	<path class="st2" d="M354.9,400.7c-1.4,0.3-2.4,1.6-2.2,3c0.5,3.1,0.3,6.1,0.1,9.1c-0.1,1.9-0.3,3.9-0.2,6c0,1.4,1.2,2.6,2.7,2.6
		c1.4,0,2.6-1.2,2.6-2.7c0-1.9,0.1-3.7,0.2-5.6c0.3-3.2,0.5-6.6-0.2-10.4C357.6,401.4,356.2,400.5,354.9,400.7z"/>
	<path class="st3" d="M398.4,392.2L398.4,392.2C398.4,392.2,398.5,392.2,398.4,392.2L398.4,392.2z"/>
	<path class="st2" d="M425.6,404.1c-0.7-1.2-2.3-1.8-3.5-1c-3.9,2.1-12.2,4.4-17.6,2.6c-1.1-0.4-2.1-0.9-2.8-1.7
		c5-2.9,7.8-6,8.4-9.1l0,0l0,0c0.1-0.9,0.2-1.6,0.1-2.3c-0.3-1.8-1.4-2.7-2.1-3c-3.3-1.8-8,1.3-9.5,2.7c-2.7,2.3-4,6.1-3.6,9.5
		c-0.7,0.6-0.9,1.4-0.9,2.4c0,0.2,0.1,0.5,0.2,0.7c0.5,1,1.4,1.5,2.4,1.5c1.5,2,3.6,3.5,6.2,4.4c7.4,2.5,17.2-0.6,21.8-2.9
		C425.9,407,426.4,405.4,425.6,404.1z M401.7,395.9L401.7,395.9c0.9-0.8,1.9-1.3,2.8-1.3c-0.4,0.8-1.2,2.5-4.3,4.1
		C400.6,397.7,401,396.5,401.7,395.9z"/>
	<path class="st2" d="M346.4,407.7c-2.4-3.2-7.2-2.6-11.3-1.3c0.7-3.3,1.4-6.7,2.7-10.6c0.4-1.3-0.4-2.8-1.8-3.3
		c-1.3-0.4-2.8,0.4-3.3,1.8c-1.7,5.4-2.7,9.9-3.4,14.5c-1.1,0.7-1.5,2.1-0.9,3.3c0.1,0.3,0.2,0.5,0.4,0.7c-0.4,2.8-0.7,5.8-1,9.1
		l-0.1,1.4c-0.1,1,0.3,2,1.1,2.5l0,0c0.7,1.2,2.3,1.8,3.5,1c3.7-2,8.4-4.7,11.8-8.5l0,0l0,0c1.6-1.7,3.9-5.2,3.3-8.4
		C347.2,409.2,346.9,408.4,346.4,407.7L346.4,407.7z M340.1,414.7C340.1,414.8,340.1,414.8,340.1,414.7c-2,2.1-4.6,4-6.9,5.4
		c0.3-2.8,0.7-5.3,0.9-7.8c6.1-2.5,7.8-1.8,8-1.6l0,0C342.2,411.4,341.4,413.3,340.1,414.7z"/>
	<path class="st4" d="M343.9,418.3L343.9,418.3L343.9,418.3L343.9,418.3z"/>
	<path class="st2" d="M312.3,398.3C312.2,398.3,312.2,398.3,312.3,398.3c-1.2,0.2-2.6,1.4-2.6,3c0,0.3,0,0.1,0,0.5
		c0.2,11.4-5.8,20.8-16,26c-8.9,4.7-20.8,5.5-29.8,0.7c-7.2-3.9-10.4-11.4-10.4-19.3c0-1.7-2.3-2.1-3.5-1.6
		c-0.9,0.4-1.4,0.9-1.6,1.7c-0.3,0.8-0.4,1.5-0.4,2.3c0.1,11.2,6.8,20.2,17.5,23.7c10.5,3.5,22.5,2.2,32.4-2.8
		c11.6-5.7,19.3-16.8,18.3-30c0-0.1-0.1-0.4-0.1-0.4C315.8,399.2,314,398,312.3,398.3z"/>
</g>
<g>
	<path class="st5" d="M347.3,84.9l-26.6-48c-2.3-4.1-6.6-6.6-11.2-6.6s-8.9,2.5-11.2,6.6L271.7,85c-2.2,4-2.2,9,0.2,13
		c2.3,4,6.4,6.3,11,6.3h53.2c4.6,0,8.7-2.4,11-6.3C349.6,94,349.6,89,347.3,84.9z"/>
	<circle class="st6" cx="309.5" cy="91" r="6.5"/>
	<g>
		<path class="st6" d="M309.5,79.3c-2.9,0-5.3-2.4-5.3-5.3V49.9c0-2.9,2.4-5.3,5.3-5.3c2.9,0,5.3,2.4,5.3,5.3V74
			C314.8,76.9,312.4,79.3,309.5,79.3z"/>
	</g>
</g>
<g>
	<path class="st5" d="M189.9,136.8H168v-3.6h10.7c-0.6-1.6-1.7-3.7-3.2-6.3l3.3-1.5c1.6,3,2.9,5.6,3.8,7.8h7.3V136.8z M189,147.1
		h-19.2v-3.7H189V147.1z M189,157.9h-19.2v-3.8H189V157.9z M187.9,187.1h-3.7v-3.9h-9.9v5.7h-3.6v-23.7h17.2V187.1z M184.2,179.7
		v-10.9h-9.9v10.9H184.2z M230.5,152h-39.2v-3.3h18v-5.3h-14.9v-3.3h14.9v-5h-16.4v-3.3h16.4v-5.7h3.7v5.7H229v3.3H213v5h14.4v3.3
		H213v5.3h17.5V152z M226.1,183.3c0,1.8-0.6,3.2-1.7,4.3s-4.8,1.5-11,1.3l-1.3-3.7h8c0.5,0,1-0.2,1.4-0.6s0.7-0.9,0.7-1.4v-5.9
		h-23.2c-1.1,4.8-2.8,8.8-5.1,12l-2.7-2.5c3.3-4.4,4.9-10.8,4.9-19v-11.3h29.9V183.3z M222.3,173.9v-5.4h-22.7
		c0.1,1.8,0,3.6-0.3,5.4H222.3z M222.3,165.1v-5.2h-22.6v5.2H222.3z"/>
	<path class="st5" d="M301.2,135.3c0,11.5-0.3,21.9-1,31.2s-1.4,15-2.2,16.9s-1.9,3.3-3.4,4.2s-5.1,1.3-10.9,1.3
		c-1.2,0-2.5,0-3.8-0.1l-1.6-4c3.8,0.1,6.8,0.1,9.2,0.1c2.1,0,3.5-0.1,4.1-0.4s1.3-0.6,1.8-1.1s0.9-1.1,1.2-1.8s0.7-3.9,1.2-9.5
		s1-11.1,1.2-16.4s0.3-10.9,0.3-16.8h-9.7c-1.6,10.4-4.9,19.2-9.8,26.6s-13.9,14.9-26.9,22.7l-2.7-3.2c11.6-6.6,20-13.3,25.3-20.3
		s8.7-15.6,10.3-25.9h-11.4c-1.6,6.4-5,12.5-10.3,18.3s-11.5,10.6-18.6,14.3l-2.5-3c6.8-3.5,12.7-7.8,17.7-13.1s8.1-10.8,9.6-16.5
		h-12.5c-4.5,5.8-8.9,10.3-13.2,13.3l-2.9-2.7c9.4-7.1,15.8-15,19-23.6l3.7,1c-1,2.8-2.3,5.6-4,8.3H301.2z"/>
	<path class="st5" d="M339.5,163.9l-2.4,3c-2.8-4.2-5.6-7.7-8.3-10.7v33.1h-3.7V156c-3.3,6.8-6.8,12.6-10.7,17.4l-2.5-2.9
		c4.8-5.9,9.2-13.6,13.1-22.9h-12.6v-3.8h12.8v-10.5l-9.8,1.7l-1.4-3.7c9.1-1,16.5-2.8,22.2-5.5l1.8,3.3c-2.6,1.1-5.6,2.1-9.1,3.1
		v11.6h10.1v3.8h-10.1v3.4C334.2,156.8,337.8,161,339.5,163.9z M374.9,187.5h-39v-3.7h6.3V128h26.9v55.9h5.8V187.5z M365.1,145.9
		v-14.3h-18.9v14.3H365.1z M365.1,164.3v-14.6h-18.9v14.6H365.1z M365.1,183.8v-15.8h-18.9v15.8H365.1z"/>
	<path class="st5" d="M443.6,183.8c0,1.9-0.7,3.3-2.1,4.1s-4.5,1.2-9.4,1.2c-1.1,0-2.2,0-3.2-0.1l-1.2-3.9c1.8,0.1,3.5,0.2,5.2,0.2
		c3.4,0,5.4-0.1,6-0.4s0.8-0.7,0.8-1.4v-17.4h-20.4v21.1h-3.9v-21.1H395c-1.1,9.9-3.6,17.4-7.4,22.7l-3.4-2.4
		c4.9-7.2,7.3-15.8,7.3-25.9v-33h52.1V183.8z M415.5,144.5v-13.1h-20.1v13.1H415.5z M415.5,162.4v-14h-20.1v14H415.5z M439.8,144.5
		v-13.1h-20.4v13.1H439.8z M439.8,162.4v-14h-20.4v14H439.8z"/>
</g>
</svg>
