<?xml version="1.0" encoding="utf-8"?>
<!-- Generator: Adobe Illustrator 25.3.1, SVG Export Plug-In . SVG Version: 6.00 Build 0)  -->
<svg version="1.1" id="圖層_2_1_" xmlns="http://www.w3.org/2000/svg" xmlns:xlink="http://www.w3.org/1999/xlink" x="0px"
	 y="0px" viewBox="0 0 449 449" style="enable-background:new 0 0 449 449;" xml:space="preserve">
<style type="text/css">
	.st0{fill:none;stroke:#7C7C7C;stroke-width:5.7689;stroke-linecap:round;stroke-linejoin:round;stroke-miterlimit:10;}
	.st1{fill:#D03400;}
	.st2{font-family:'MicrosoftJhengHeiBold';}
	.st3{font-size:94.2405px;}
</style>
<path class="st0" d="M269.4,394.9c-1.7,20.4-2.9,34.5-6.3,53.6"/>
<path class="st0" d="M178.2,2.3c49.3,55.4,81.2,148.2,89.8,264.1"/>
<path class="st0" d="M193.2,391.9c-1.2,22-4.5,35-7.5,55.5"/>
<path class="st0" d="M89,3.7c35.4,37.6,64.6,96.4,83,167.7"/>
<path class="st0" d="M180.4,387.8c-1.2,22-4.4,39.1-7.4,59.6"/>
<path class="st0" d="M76.3,3.7c37.5,39.9,64.9,91,83,168.1"/>
<line class="st0" x1="114.1" y1="67.4" x2="-35.6" y2="113.9"/>
<line class="st0" x1="150.8" y1="159.1" x2="-39.8" y2="188.8"/>
<line class="st0" x1="-41.2" y1="126.6" x2="131" y2="291.8"/>
<path class="st0" d="M208.6,298.9c0,0-48-16.9-59.3-35.3c-6.1-9.9-5.9-14.7-6.1-26.3c-0.3-17.6-2.6-53.4,17.4-61.2
	c23.7-9.3,18,58.2,22.6,63.5c8.5,9.9,51.1,27.7,66.4,31.1c25.4,5.6,26.4-19.5,31.1-36.7c8.5-31.1-22.3-54.8-22.3-54.8l-4.2-20.7
	c0,0,26.9-30.6,46.3,0.7s46.6,40.9,67.8,63.5c19.2,20.5,36.7,26.8,36.7,26.8"/>
<path class="st0" d="M201.6,335.6c-21.5-10.6-59.4-24.5-67.8-35.3c-8.1-10.4-1.4-53.7,15.5-36.7"/>
<path class="st0" d="M198.8,368.1c-25.4-9.9-70.6-26.8-74.7-41.8c-3.5-12.7-0.1-35.9,16.9-18.9"/>
<path class="st0" d="M393.6,359.6c0,0-19.8-18.4-56.5,1.4c0,0-64.9,56.5-143.9,30.9c-24.8-8-49.8-5.5-55.2-23.9
	c0,0-0.1-14.1,1.4-21.2"/>
<polyline class="st0" points="169.1,427.4 -39.8,221.2 107,451.4 "/>
<line class="st0" x1="128.2" y1="273.5" x2="-35.6" y2="239.6"/>
<path class="st1" d="M336.9,64.1c-21.2-0.2-40,5.8-40,5.8l-11.6-24.6c-1.1-2.3-4.7-1.9-5.3,0.6l-30.2,52c-0.5,2.1,0.4,4.1,2.2,5.4
	l56,21.3c2.2,1.5,5.3-3.3,4.3-5.6l-9.6-21.6c0,0,17.9-7.7,40.2-6.8c1.9,0.1,3.4-1.8,2.8-3.6l-6.3-20.8
	C339.2,64.9,338.2,64.1,336.9,64.1z"/>
<text transform="matrix(1 0 0 1 342.769 171.6343)" class="st1 st2 st3">壓</text>
</svg>
