<?xml version="1.0" encoding="utf-8"?>
<!-- Generator: Adobe Illustrator 25.3.1, SVG Export Plug-In . SVG Version: 6.00 Build 0)  -->
<svg version="1.1" id="圖層_2_1_" xmlns="http://www.w3.org/2000/svg" xmlns:xlink="http://www.w3.org/1999/xlink" x="0px"
	 y="0px" viewBox="0 0 449 449" style="enable-background:new 0 0 449 449;" xml:space="preserve">
<style type="text/css">
	.st0{fill:none;stroke:#7C7C7C;stroke-width:5.7689;stroke-linecap:round;stroke-linejoin:round;stroke-miterlimit:10;}
	.st1{fill:none;stroke:#D03400;stroke-width:13;stroke-linecap:round;stroke-linejoin:round;stroke-miterlimit:10;}
	.st2{fill:#FFFFFF;}
	.st3{fill:#D03400;}
</style>
<path class="st0" d="M284.3,295v-63.8c0-2.2-0.9-4.2-2.4-5.8c-13.8,7.6-30.5,12.1-48.4,12.1s-34.6-4.5-48.4-12.1
	c-1.5,1.6-2.4,3.6-2.4,5.8V294"/>
<path class="st0" d="M233.5,68.1c37.4,0,69.1,23.8,81.1,57c1.4-2,2.2-4.3,2.2-6.9V49c0-6.6-5.4-12-12-12H162.2c-6.6,0-12,5.4-12,12
	v69.2c0,2.6,0.8,5,2.2,6.9C164.3,91.8,196.1,68.1,233.5,68.1z"/>
<path class="st0" d="M314.5,125.1c-11.9-33.2-43.7-57-81.1-57s-69.1,23.8-81.1,57c-3.3,9.1-5,18.9-5,29.1
	c0,29.6,14.9,55.7,37.7,71.2c13.8,9.4,30.5,14.9,48.4,14.9s34.6-5.5,48.4-14.9c22.7-15.5,37.7-41.6,37.7-71.2
	C319.6,144,317.8,134.2,314.5,125.1z"/>
<path class="st0" d="M280.4,189.4c-10.7,15.4-28.5,25.5-48.7,25.5"/>
<path class="st0" d="M172.4,155.6c0-32.7,26.5-59.3,59.3-59.3c22.4,0,42,12.5,52,30.8"/>
<line class="st1" x1="116.8" y1="124.5" x2="68.8" y2="121.7"/>
<line class="st1" x1="136.5" y1="186.6" x2="91.4" y2="217.7"/>
<line class="st1" x1="339.3" y1="126.2" x2="383.9" y2="108"/>
<line class="st1" x1="338.2" y1="183.9" x2="390.6" y2="200.4"/>
<path class="st0" d="M442.2,24.8c0,6.6-5.4,12-12,12H20.1c-6.6,0-12-5.4-12-12"/>
<g>
	<path class="st0" d="M122.2,295.7h-14.1c-7.8,0-14.1,6.4-14.1,14.1v71.6c0,7.8,6.4,14.1,14.1,14.1h14.1"/>
	<path class="st0" d="M351.5,395.1c1.1,0.3,2.3,0.4,3.5,0.4c7.8,0,14.1-6.4,14.1-14.1v-71.6c0-7.8-6.4-14.1-14.1-14.1
		c-0.9,0-1.8,0.1-2.7,0.3"/>
	<path class="st0" d="M270.6,395.6h78.6V392c-2.9-2.6-4.7-6.3-4.7-10.5v-71.6c0-4.2,1.8-7.9,4.7-10.5v-3.6H124.6v2.1
		c4.1,2.5,6.8,7,6.8,12.1v71.6c0,5.1-2.7,9.6-6.8,12.1v2.1h78.3"/>
</g>
<path class="st0" d="M277.9,398.8c26,5,45.7,26.4,45.7,51.9"/>
<path class="st0" d="M152.1,450.6c0-25.5,19.7-46.9,45.7-51.9"/>
<path class="st0" d="M180.6,435.8c0-25.6,25.7-46.6,57.2-46.6l0,0c31.4,0,57.2,21,57.2,46.6"/>
<path class="st2" d="M411,350h-94c-6.6,0-12-5.4-12-12v-80c0-6.6,5.4-12,12-12h94c6.6,0,12,5.4,12,12v80
	C423,344.6,417.6,350,411,350z"/>
<g>
	<path class="st3" d="M428.7,242.4h-82.2v-4.5h39.4c-0.6-1.5-1.5-3.1-2.4-4.8l4.8-1.5c1.1,1.8,2.1,3.9,3.1,6.3h37.3V242.4z
		 M379.9,286.6c-2.4,15.3-12.2,24.4-29.5,27.3l-3.1-4.6c16.3-2,25.6-9.8,27.9-23.4L379.9,286.6z M426.3,291.9h-5v-10.5H354v10.5
		h-4.8v-15h77.1V291.9z M418.8,269.4h-62.4v-19.6h62.4V269.4z M413.7,264.7v-10.4h-52.1v10.4H413.7z M429.1,299.2
		c-0.4,4.8-1.2,8-2.2,9.7c-1,1.7-2.5,2.8-4.5,3.3c-2,0.5-6.5,0.8-13.5,0.8c-4.8,0-7.8-0.1-9.1-0.4c-1.2-0.3-2.3-1-3.4-2.2
		c-1-1.2-1.5-2.8-1.5-5v-18.8h4.7v18.5c0,1.2,0.4,2.1,1.3,2.6c0.9,0.5,3.5,0.7,7.9,0.7c6,0,9.7-0.2,11.1-0.5s2.5-1.2,3.1-2.6
		c0.6-1.4,1-4,1.2-7.9L429.1,299.2z"/>
</g>
</svg>
