<?xml version="1.0" encoding="utf-8"?>
<!-- Generator: Adobe Illustrator 26.2.1, SVG Export Plug-In . SVG Version: 6.00 Build 0)  -->
<svg version="1.1" id="圖層_2_1_" xmlns="http://www.w3.org/2000/svg" xmlns:xlink="http://www.w3.org/1999/xlink" x="0px"
	 y="0px" viewBox="0 0 448.9 449" style="enable-background:new 0 0 448.9 449;" xml:space="preserve">
<style type="text/css">
	.st0{fill:none;stroke:#7C7C7C;stroke-width:5.7689;stroke-linecap:round;stroke-linejoin:round;stroke-miterlimit:10;}
</style>
<g>
	<path class="st0" d="M152.5,306.7c0,0,14.8-55.2,5.6-57.9c0,0-14.1-14.1,1.8-19.4"/>
	<path class="st0" d="M247.4,249.3c0,0,3-4,4,7c1,11.1-23.1,12.1-31.2,12.1c-5.3,0-10.8,2.7-13.9,4.5c-1.6,1-2.8,2.5-3.3,4.3
		l-9.9,39.3"/>
	<path class="st0" d="M58,102.9c-7.5,2.5-25.8,6.1-27.3,23.5c-4.5,13,0.3,21.6,12.1,23.9l181.7,64c38.9,13.3,74.6,10.1,108.2-9.8
		c22.1-13,36.4-32,40.4-58c3.5-23.1-8.8-37-32.1-35.4c-8.4,0.6-17.1,1.7-25,4.6c-39.4,14.5-104.6,3.1-144.1-3.5"/>
	<path class="st0" d="M134.5,184.2c3.7,4.6,23.8,41.2,26.2,43.7c0,0,5.7,13.7,15.2,16.7c8.6,2.7,19.4,4.1,38,7.8
		c3.4,0.7,25.4-0.4,28.5-2c8.4-4.2,25.5-7.1,30.4-6.9c14,0.5,11.4,18.5,36.1,9.8c1-0.4,1.9-0.9,2.6-1.7c3-3.3,8.1-10,0.2-10
		c0,0,13.3-3.3,7.6-8.8c-2.4-2.4-4.7-1-4.7-1s11.4-2.9,11.4-8.8c0-8.1-9.5-4.9-9.5-4.9"/>
	<path class="st0" d="M148.3,188.4c0,0,21.1,39.2,29.8,42.1c0,0,15.7,6.6,24.5,4.7c0,0-5.4-10.9-1-18.5c0,0,3.6-7.3,10.6-6.4"/>
	<path class="st0" d="M240.4,222.1c0,0,6,12.1-4,10.1c0,0,31.2,2,40.3,2s-11.1-4.4,0-10.1"/>
	<line class="st0" x1="149.1" y1="338.9" x2="124.1" y2="427.4"/>
	<line class="st0" x1="179.7" y1="345.8" x2="154.5" y2="432.4"/>
	<path class="st0" d="M216.4,330.3c-6.4-1.1-11.6-9.5-11.6-9.5L150,308.2l-3.8-1c-2.7-0.7-5.4,0.9-6.1,3.5l-4.8,17.9
		c-0.7,2.7,0.9,5.5,3.7,6.2l49,11.5c0,0,7.4,1.5,21.9,2.9l15.1-13.9C224.8,335.2,222.8,331.4,216.4,330.3z"/>
	<g>
		<path class="st0" d="M278.2,3.4c-8.2,7.9-15.5,15.1-21.6,20.9c-25.3,24.1-19,34.2-17.7,45.6s-26.6,38-39.3,39.3
			s-27.9,1.3-27.9,1.3s-17.7,22.8-32.9,24.1c-15.2,1.3-17.8-10.2-17.8-10.2s5.1-15.2,16.5-26.6c0,0,6.3-11.4,16.5-15.2
			s8.9-17.7,15.2-22.8"/>
		<path class="st0" d="M192,10.4c-2.5,8.9-55.7,46.9-55.7,46.9S95.1,69,86.8,75c-7.5,5.4-6.6,12.2-9.8,16.9
			c-4.5,6.3-19.3,11-19.3,11l50.7,2.5c0,0,19,3.8,25.3-3.8"/>
	</g>
	<g>
		<path class="st0" d="M348.5,243.5c0,0-38.1,29.6-49.8,37.1c-11.6,7.4-36,14.8-48.7,20.1c-12.7,5.3-22.3,31.8-22.3,31.8l-14.8,14.8
			c0,0-10.3,13.1-9.2,20.5s5.4,7,9.2,8.5c3.5,1.4,5.6,7.1,5.6,7.1s10.9,12,18.4,12h5.6c0,0,4.6,7.8,12,9.9c7.4,2.1,12,0.7,12,0.7
			s4.6,3.5,14.1,3.5s19.1-14.1,19.1-14.1"/>
		<path class="st0" d="M372.2,308.8L326.3,326l-7.4-14.8c0,0,25.4,37.1,19.1,49.8c-6.4,12.7-27.5,32.8-27.5,32.8l-8.5,2.1
			c0,0-32.2-7.9-32.8-16.9c-1.1-16.9,21.2-11.6,21.2-11.6s6.4,4.2,13.8-6.4"/>
		<path class="st0" d="M215.7,343.9c0,0,14.1-8.4,16.3-3.1c0,0,6.7-3.8,12-1.6l6,5.9c0,0,4.2-4.2,10.6-4.2c6.4,0,10.6,3.2,10.6,3.2
			s18,3.2,18,9.5s-7.4,10.6-7.4,10.6"/>
		<path class="st0" d="M218.2,357.8c3.2-4.2,11.6-13.8,11.6-13.8"/>
		<path class="st0" d="M237.3,382.2c0,0-9.5-9.5-6.3-13.8c3.2-4.2,16.9-20.1,16.9-20.1"/>
		<path class="st0" d="M271.2,348.3c0,0-7.4,1.1-9.5,4.2c-2.1,3.2-10.6,19.1-10.6,23.3s10.6,19.1,10.6,19.1"/>
	</g>
	<path class="st0" d="M204.8,323.9c0,0-6.8,0.3-8.8,6.4c-2.1,6.4-3.9,15.9,3.5,15.9s10.6-11.6,10.6-11.6"/>
</g>
<g>
	<path d="M367.4,441.4h-9.9v-37.2c-3.6,3.4-7.9,5.9-12.8,7.5v-9c2.6-0.8,5.4-2.4,8.4-4.8s5.1-5.1,6.2-8.2h8L367.4,441.4L367.4,441.4
		z"/>
	<path d="M384.3,441.4v-9.9h9.9v9.9H384.3z"/>
	<path d="M418.9,389.7c5,0,8.9,1.8,11.7,5.3c3.4,4.2,5,11.2,5,21s-1.7,16.8-5.1,21c-2.8,3.5-6.7,5.3-11.7,5.3s-9.1-1.9-12.1-5.8
		s-4.6-10.7-4.6-20.6c0-9.7,1.7-16.7,5.1-21C410,391.4,413.9,389.7,418.9,389.7z M418.9,397.9c-1.2,0-2.3,0.4-3.2,1.1
		s-1.7,2.1-2.2,4.1c-0.7,2.6-1,6.9-1,12.9s0.3,10.2,0.9,12.5s1.4,3.8,2.3,4.5s2,1.1,3.2,1.1s2.3-0.4,3.2-1.1s1.7-2.1,2.2-4.1
		c0.7-2.5,1-6.8,1-12.9s-0.3-10.2-0.9-12.5s-1.4-3.8-2.3-4.5S420.1,397.9,418.9,397.9z"/>
</g>
</svg>
