<?xml version="1.0" encoding="utf-8"?>
<!-- Generator: Adobe Illustrator 25.3.1, SVG Export Plug-In . SVG Version: 6.00 Build 0)  -->
<svg version="1.1" id="圖層_2_1_" xmlns="http://www.w3.org/2000/svg" xmlns:xlink="http://www.w3.org/1999/xlink" x="0px"
	 y="0px" viewBox="0 0 449 449" style="enable-background:new 0 0 449 449;" xml:space="preserve">
<style type="text/css">
	.st0{fill:none;stroke:#7C7C7C;stroke-width:5.7689;stroke-linecap:round;stroke-linejoin:round;stroke-miterlimit:10;}
	.st1{fill:#D03400;}
</style>
<g>
	<path class="st0" d="M32.3,152.7l-42.9,19.1L-41.8,189c-12.5,6.8-17.8,22.1-12.2,35.3c4.1,9.8,8.5,19.1,10.3,20.3
		c3.9,2.6,60.9-25.1,60.9-25.1s3.9,23.8,15.8,27.8s22.5,5.3,13.2,21.2c-9.3,15.8-22.5,31.8-38.4,31.8c-5.2,0-10.1,0.8-14.5,2
		C-17.3,304.9-32.2,318-28,328c0,0.1,1.3,10.5,1.3,10.6c3.9,9.3,11.9,10.6,17.3,10.6c14.5,0,25.1-5.3,25.1-5.3s31.8,9.3,66.2,6.7
		c0,0,21.2-17.3,19.9-45c-1.3-27.8,2.6-50.3,0-60.9c-2.6-10.6-11.9-26.4-11.9-26.4s5.7-0.2,25.1-2.6"/>
	<path class="st0" d="M295.3,189c17.5-3.7,20.9-11,18.6-29.2c-2.3-16.8,8.3-34.6-18.6-43.7"/>
	<path class="st0" d="M180.1,285.7c-22.5,10.6-31.8,22.5-38.4,34.4c-6.7,11.9-14.5,23.8-25.1,23.8s-19.9-5.3-19.9-5.3"/>
	<path class="st0" d="M284.8,263.2c6.4,3.5,5.7,5.7,5.3,9.3c-1.3,10.6-2.6,19.9-14.5,18.6c-1.9-0.2-3.6-0.8-5.1-1.7"/>
	<path class="st0" d="M103.3,295c0,0,13.2,5.3,30.5-3.9c16.1-8.7,27.8-30.5,60.9-39.8"/>
	<path class="st0" d="M237,182.5c0,0,8,48.9,8,72.8s-26.4,47.6-26.4,47.6c-27.8,29.2-53-1.3-33.1-26.4s0.6-83.4,0.6-83.4l-5.8-23.8
		c0,0-1.3,60.9-5.3,67.5c0,0-3.9,17.3-27.8,15.8c-23.8-1.3-30.5-18.6-30.5-25.1c0-6.7,6.7-33.1,5.3-47.6
		c-1.3-14.5-1.9-43.4-18.6-43.7s-47.6,10.6-47.6,10.6L36.4,151c0,0-12.4-10.8,16.7-29.4s37-18.6,45-43.7s0-46.3,0-46.3"/>
	<path class="st0" d="M267.5,48.8c0,0,30.5,56.9,29.2,86.1c0,0-2.6,86.1-8,109.9c-5.3,23.8-11.9,45-29.2,50.3
		c0,0-17.3,11.9-23.8,10.6c-6.7-1.3-8-6.7-8-6.7s35.7-13.2,42.4-38.4s0-64.9,0-64.9l3.9-21.2"/>
	<path class="st0" d="M137.7,251.3c0,0,0.5,6.2-11.9,8c-9.3,1.3-14.5-2.6-19.9-5.3"/>
	<line class="st0" x1="-33" y1="322.8" x2="-74" y2="345.3"/>
	<line class="st0" x1="-71.4" y1="371.8" x2="-23.7" y2="344"/>
	<path class="st0" d="M-52.8,197l-17.3,17.3"/>
	<path class="st0" d="M-43.6,244.7c0,0-18.6,6.7-23.8,17.3"/>
</g>
<path class="st1" d="M291.3,382.6c47.9-26.4,38.4-85.2,38.4-85.2l-23.3,4c-2.5,0.4-6.4-3.7-4.4-5.5l34.3-49.1
	c1.6-1.5,3.9-1.8,5.7-0.9l43.1,41.9c2.2,1.1,1.7,4.8-0.7,5.3l-26.7,5.3c0,0,3.9,62.5-32.5,81c-12.1,6.2-23.6,8.7-32.4,9.7
	C289.4,389.5,288.2,384.4,291.3,382.6z"/>
<g>
	<path class="st1" d="M351.6,162.6c-0.6,8.2-1.9,15.8-4,22.9l-4.4-2.1c2-6.2,3.3-13.6,4-22.3L351.6,162.6z M370.5,167.7l-2.9,3.8
		c-3.1-3.9-5.6-6.6-7.5-8.2v61.4h-4.8v-82.9h4.8v15.6C364.6,161.1,368.1,164.5,370.5,167.7z M425.8,219.6l-2.3,4.5
		c-9.4-0.9-18.4-2.9-27.1-6.1c-7.7,3.1-17.4,5.1-29.1,6l-2.3-4.4c10.1-0.9,18.3-2.3,24.7-4.3c-6.6-3.5-11.8-7.5-15.5-12.1h-4.6v-4.7
		H417v4.7c-4.5,5.2-9.3,9.1-14.4,11.9C408.6,217.1,416.3,218.6,425.8,219.6z M422,192.6h-53.5v-17.2H422V192.6z M384.5,188.1v-8.4
		H373v8.4H384.5z M417,170.3h-4.9v-21.8h-33.5v21.8h-4.7v-26.2H417V170.3z M410,203.2h-29.2c3.6,3.5,8.7,6.7,15.3,9.5
		C401.9,210.2,406.6,207,410,203.2z M408.3,159.1h-25.6v-4.8h25.6V159.1z M408.3,168.6h-25.6v-4.4h25.6V168.6z M400.9,188.1v-8.4
		h-11.5v8.4H400.9z M417.3,188.1v-8.4h-11.5v8.4H417.3z"/>
</g>
</svg>
