<svg width="213" height="213" viewBox="0 0 213 213" fill="none" xmlns="http://www.w3.org/2000/svg">
<path d="M58.6 73.6C51 68.5 46 59.8 46 50C46 34.3 58.7 21.5 74.5 21.5C90.3 21.5 103 34.2 103 50C103 65.8 90.1 78.5 74.4 78.5C68.5 78.5 63.1 76.7 58.6 73.6Z" stroke="#7C7C7C" stroke-width="5.2346" stroke-miterlimit="10" stroke-linecap="round" stroke-linejoin="round"/>
<path d="M29 121C29 98.6 49.6 80.4 75.1 80.4C84.7 80.4 93.5 82.9 100.9 87.3" stroke="#7C7C7C" stroke-width="5.2346" stroke-miterlimit="10" stroke-linecap="round" stroke-linejoin="round"/>
<path d="M137.8 196C167.071 196 190.8 172.271 190.8 143C190.8 113.729 167.071 90 137.8 90C108.529 90 84.8 113.729 84.8 143C84.8 172.271 108.529 196 137.8 196Z" stroke="#677510" stroke-width="5.2346" stroke-miterlimit="10" stroke-linecap="round" stroke-linejoin="round"/>
<path d="M102.5 143L133.4 170.4L173.1 130.4L159 117L131.8 146.1L114.5 130.4L102.5 143Z" fill="#B5CC22" stroke="#B5CC22" stroke-width="5.2346" stroke-miterlimit="10" stroke-linecap="round" stroke-linejoin="round"/>
</svg>
