<svg width="213" height="213" viewBox="0 0 213 213" fill="none" xmlns="http://www.w3.org/2000/svg">
<path d="M101.6 80.7V23.3C101.6 14.5 109.1 7.20001 118.4 7.20001H191.1C200.3 7.20001 207.9 14.4 207.9 23.3L207.8 180.6C207.8 189.4 200.3 196.7 191 196.7H118.3C113.2 196.7 108.7 194.5 105.6 191.1" stroke="#7C7C7C" stroke-width="5.2346" stroke-miterlimit="10" stroke-linecap="round" stroke-linejoin="round"/>
<path d="M164.4 177.3H145C144.7 177.3 144.4 177.1 144.4 176.7V172.9C144.4 172.6 144.6 172.3 145 172.3H164.5C164.8 172.3 165.1 172.5 165.1 172.9V176.7C165 177 164.8 177.3 164.4 177.3Z" fill="#7C7C7C"/>
<path d="M137 155.7H207.4" stroke="#7C7C7C" stroke-width="5.2346" stroke-miterlimit="10" stroke-linecap="round" stroke-linejoin="round"/>
<path d="M15 94C9.2 94 4.5 98.7 4.5 104.5V165.9C4.5 171.7 9.2 176.4 15 176.4H118C123.8 176.4 128.5 171.7 128.5 165.9V104.5C128.5 98.7 123.7 94 118 94H15Z" stroke="#677510" stroke-width="5.2346" stroke-miterlimit="10" stroke-linecap="round" stroke-linejoin="round"/>
<path d="M5.20001 128.8H115.9" stroke="#677510" stroke-width="5.2346" stroke-miterlimit="10" stroke-linecap="round" stroke-linejoin="round"/>
<path d="M40.6 157.6H25.3C22.7 157.6 20.5 155.5 20.5 152.8V148.5C20.5 145.9 22.6 143.7 25.3 143.7H40.6C43.2 143.7 45.4 145.8 45.4 148.5V152.8C45.4 155.5 43.3 157.6 40.6 157.6Z" stroke="#677510" stroke-width="5.2346" stroke-miterlimit="10" stroke-linecap="round" stroke-linejoin="round"/>
<path d="M90.3 145.2H111" stroke="#677510" stroke-width="5.2346" stroke-miterlimit="10" stroke-linecap="round" stroke-linejoin="round"/>
<path d="M90.3 153.7H111" stroke="#677510" stroke-width="5.2346" stroke-miterlimit="10" stroke-linecap="round" stroke-linejoin="round"/>
<path d="M149.4 45.5H128.6V66.3H149.4V45.5Z" stroke="#B5CC22" stroke-width="5.2346" stroke-miterlimit="10" stroke-linecap="round" stroke-linejoin="round"/>
<path d="M141.5 53.3H136.3V58.5H141.5V53.3Z" fill="#B5CC22"/>
<path d="M179.8 74.2H159V95H179.8V74.2Z" stroke="#B5CC22" stroke-width="5.2346" stroke-miterlimit="10" stroke-linecap="round" stroke-linejoin="round"/>
<path d="M172 82H166.8V87.2H172V82Z" fill="#B5CC22"/>
<path d="M133.2 73.4H128V78.6H133.2V73.4Z" fill="#B5CC22"/>
<path d="M133.2 83.4H128V88.6H133.2V83.4Z" fill="#B5CC22"/>
<path d="M138.3 88.1H133.1V93.3H138.3V88.1Z" fill="#B5CC22"/>
<path d="M150.9 88.2H145.7V93.4H150.9V88.2Z" fill="#B5CC22"/>
<path d="M144.9 73.3V78.4H132.8V83.7H144.9H145.1H151V73.3H144.9Z" fill="#B5CC22"/>
<path d="M163.1 45H157.9V50.2H163.1V45Z" fill="#B5CC22"/>
<path d="M163.1 55H157.9V60.2H163.1V55Z" fill="#B5CC22"/>
<path d="M168.2 59.7H163V64.9H168.2V59.7Z" fill="#B5CC22"/>
<path d="M180.8 59.8H175.6V65H180.8V59.8Z" fill="#B5CC22"/>
<path d="M174.8 44.9V50.1H162.7V55.3H174.8H174.9H180.8V44.9H174.8Z" fill="#B5CC22"/>
</svg>
