<svg width="213" height="213" viewBox="0 0 213 213" fill="none" xmlns="http://www.w3.org/2000/svg">
<path d="M82.8 84.8V68.5C82.8 55.8 94 45.5 107.9 45.5C121.8 45.5 133 55.8 133 68.5V82.8" stroke="#677510" stroke-width="5.2346" stroke-miterlimit="10" stroke-linecap="round" stroke-linejoin="round"/>
<path d="M65.3 84.1V64.2C65.3 42.9 84.4 25.6 107.9 25.6C131.4 25.6 150.5 42.9 150.5 64.2V85.5" stroke="#677510" stroke-width="5.2346" stroke-miterlimit="10" stroke-linecap="round" stroke-linejoin="round"/>
<path d="M111.2 185.1H100.9C74 185.1 52.2 163.3 52.2 136.4V94.3C52.2 89.4 56.2 85.5 61 85.5H151C155.9 85.5 159.8 89.5 159.8 94.3V136.5C159.9 163.3 138.1 185.1 111.2 185.1Z" stroke="#677510" stroke-width="5.2346" stroke-miterlimit="10" stroke-linecap="round" stroke-linejoin="round"/>
<path d="M105.3 140.8C113.363 140.8 119.9 134.263 119.9 126.2C119.9 118.137 113.363 111.6 105.3 111.6C97.2366 111.6 90.7 118.137 90.7 126.2C90.7 134.263 97.2366 140.8 105.3 140.8Z" stroke="#B5CC22" stroke-width="5.2346" stroke-miterlimit="10" stroke-linecap="round" stroke-linejoin="round"/>
<path d="M106.1 163.3V142.1" stroke="#B5CC22" stroke-width="5.2346" stroke-miterlimit="10" stroke-linecap="round" stroke-linejoin="round"/>
</svg>
