<svg width="213" height="213" viewBox="0 0 213 213" fill="none" xmlns="http://www.w3.org/2000/svg">
<path d="M166.7 203.9C185.312 203.9 200.4 188.812 200.4 170.2C200.4 151.588 185.312 136.5 166.7 136.5C148.088 136.5 133 151.588 133 170.2C133 188.812 148.088 203.9 166.7 203.9Z" stroke="#B5CC22" stroke-width="5.2346" stroke-miterlimit="10" stroke-linecap="round" stroke-linejoin="round"/>
<path d="M166.7 170.2L143.4 100.6C142.5 97.8 139.8 95.9 136.9 95.9H123.2" stroke="#B5CC22" stroke-width="5.2346" stroke-miterlimit="10" stroke-linecap="round" stroke-linejoin="round"/>
<path d="M102 171.9H80.4H53.6C53.6 171.9 38.6 172.9 32.5 155.9C30.7 151 17 151.8 17 151.8C17 151.8 10.8 153.3 11.8 147.2L12.3 144.1L27.3 142L34.5 139.3C38.7 137.4 43.4 136.3 48.4 136.3C67 136.3 82.1 151.4 82.1 170C82.1 188.6 67 203.7 48.4 203.7C29.8 203.7 14.6 188.8 14.6 170.2C14.6 162.7 16.7 157.6 20.8 152" stroke="#B5CC22" stroke-width="5.2346" stroke-miterlimit="10" stroke-linecap="round" stroke-linejoin="round"/>
<path d="M147.4 124C147.4 124 128.3 137.9 121.6 151.3C120.5 153.5 119.4 155.5 118.2 157.4" stroke="#B5CC22" stroke-width="5.2346" stroke-miterlimit="10" stroke-linecap="round" stroke-linejoin="round"/>
<path d="M168 178.2C171.7 178.2 174.7 175.2 174.7 171.5C174.7 167.8 171.7 164.8 168 164.8C164.3 164.8 161.3 167.8 161.3 171.5C161.3 175.2 164.3 178.2 168 178.2Z" fill="#B5CC22"/>
<path d="M48.9 179.2C52.6003 179.2 55.6 176.2 55.6 172.5C55.6 168.8 52.6003 165.8 48.9 165.8C45.1997 165.8 42.2 168.8 42.2 172.5C42.2 176.2 45.1997 179.2 48.9 179.2Z" fill="#B5CC22"/>
<path d="M150.8 105.3C150.8 105.3 181.8 101.6 181.8 107.5C181.8 113.4 178.4 127.4 178.4 127.4L160.9 128.2" stroke="#B5CC22" stroke-width="5.2346" stroke-miterlimit="10" stroke-linecap="round" stroke-linejoin="round"/>
<path d="M92.5 168.1L77 123.3L61.9 139.2" stroke="#B5CC22" stroke-width="5.0025" stroke-miterlimit="10" stroke-linecap="round" stroke-linejoin="round"/>
<path d="M108.4 185.1H96.1C95.5 185.1 95 184.6 95 184V183.6C95 183 95.5 182.5 96.1 182.5H108.4C109 182.5 109.5 183 109.5 183.6V184C109.5 184.6 109 185.1 108.4 185.1Z" stroke="#B5CC22" stroke-width="5.0025" stroke-miterlimit="10" stroke-linecap="round" stroke-linejoin="round"/>
<path d="M100.4 172.5L101 180.1" stroke="#B5CC22" stroke-width="5.0025" stroke-miterlimit="10" stroke-linecap="round" stroke-linejoin="round"/>
<path d="M104.7 48.7C111.438 48.7 116.9 43.2379 116.9 36.5C116.9 29.7621 111.438 24.3 104.7 24.3C97.9621 24.3 92.5 29.7621 92.5 36.5C92.5 43.2379 97.9621 48.7 104.7 48.7Z" stroke="#7C7C7C" stroke-width="5.539" stroke-miterlimit="10" stroke-linecap="round" stroke-linejoin="round"/>
<path d="M148.3 84.7L120.5 81.2C120.5 81.2 99.6 55.1 91.8 54.2C84 53.3 81.4 54.2 75.3 64.6C69.2 75 56.9 98.6 56.9 98.6C56.9 98.6 51.7 112.5 69.9 120.3L101.2 132.5L100.3 172.5C100.3 172.5 105.5 180.3 109.9 177.7C114.2 175.1 114.9 131.2 114.9 131.2C114.9 131.2 115.9 118.2 101 115.4C92.3 113.8 82.3 105.3 82.3 105.3L96.2 80.1C96.2 80.1 111.6 94.1 116.9 95C122.1 95.9 147.3 95 147.3 95C147.3 95 153.5 83.8 148.3 84.7Z" stroke="#7C7C7C" stroke-width="5.539" stroke-miterlimit="10" stroke-linecap="round" stroke-linejoin="round"/>
</svg>
