<?xml version="1.0" encoding="utf-8"?>
<!-- Generator: Adobe Illustrator 25.3.1, SVG Export Plug-In . SVG Version: 6.00 Build 0)  -->
<svg version="1.1" id="分離模式" xmlns="http://www.w3.org/2000/svg" xmlns:xlink="http://www.w3.org/1999/xlink" x="0px"
	 y="0px" viewBox="0 0 46 28.8" style="enable-background:new 0 0 46 28.8;" xml:space="preserve">
<style type="text/css">
	.st0{fill:#9FA0A0;}
	.st1{fill:#5E5E5E;}
	.st2{fill:#FCEE21;}
	.st3{fill:#FFFFFF;}
	.st4{fill:#B3B3B3;}
	.st5{fill:#0E8A3B;}
</style>
<g>
	<g>
		<g>
			<polyline class="st0" points="37.8,13.4 37.8,13.4 37.8,13.4 37.8,13.4 			"/>
		</g>
	</g>
	<g>
		<g>
			<polyline class="st0" points="35.8,14 35.8,14 35.8,14 			"/>
		</g>
	</g>
	<g>
		<g>
			<path class="st0" d="M26.9,6.3h1.3l0.4,0.6c0.4,0.6,0.7,0.6,0.9,0.6c0,0,0,0,0.1,0h0.3l-1.1,3.2l1,0.2L31,7.5h0.8
				c0,0.1,0.1,0.1,0.1,0.1l0,0c0.1,0.1,0.3,0.2,0.5,0.2s0.3-0.1,0.5-0.2c0,0,0.4-0.2,0.4-0.9l0,0c0-0.1-0.1-0.2-0.2-0.2h-1.3
				c-0.1,0-0.2,0.1-0.2,0.2l0,0c0,0,0,0,0,0.1v0.1c0,0-0.4,0-0.5,0c0,0,0-0.1-0.1-0.1l-0.1-0.1c-0.1,0-0.2,0-0.3,0
				c-0.2,0-0.4,0-0.5,0.2V7h-0.5c0,0-0.2,0-0.5-0.4l-0.2-0.3l4.5-0.1c0.4,0,0.6-0.3,0.6-0.6S33.7,5,33.4,5l-6.5,0.1
				c-0.3,0-0.6,0.3-0.6,0.6C26.3,6,26.6,6.3,26.9,6.3z"/>
		</g>
	</g>
	<g>
		<g>
			<g>
				<g>
					<path class="st1" d="M0.5,21c0,2,0.9,3.8,2.3,5.1c1.5,1.4,3.4,2.2,5.5,2.2s4-0.9,5.4-2.2s2.2-3.2,2.2-5.2s-0.9-3.8-2.3-5.1
						c-0.3-0.3-0.6-0.5-0.9-0.7c-0.6-0.4-1.4-0.8-1.5-0.8c-0.9-0.4-2-0.6-3.1-0.6c-2.1,0-4,0.9-5.4,2.2S0.5,19,0.5,21z M4.1,16
						l2.5,3.3c-0.2,0.2-0.3,0.4-0.4,0.7l-4.1-1.1c0.3-0.9,0.8-1.7,1.5-2.3C3.7,16.4,3.9,16.2,4.1,16z M7.8,18.7
						c-0.2,0-0.5,0.1-0.7,0.2l-2.4-3.3c0.9-0.5,1.9-0.9,3-1L7.8,18.7z M11.2,15.4c0.1,0,0.2,0.1,0.3,0.2L9.1,19
						c-0.2-0.1-0.4-0.2-0.7-0.2l-0.1-4c0.9,0,1.8,0.2,2.5,0.5l0,0C11,15.3,11.1,15.3,11.2,15.4L11.2,15.4z M14.4,18.7L10.2,20
						c-0.1-0.2-0.3-0.5-0.5-0.7l2.4-3.4c0.1,0,0.1,0.1,0.2,0.1c0.2,0.1,0.4,0.3,0.6,0.5C13.5,17.1,14,17.8,14.4,18.7z M14.6,22.4
						l-4.3-1.2c0-0.1,0-0.2,0-0.4c0-0.1,0-0.1,0-0.2l4.3-1.3c0.1,0.5,0.2,1,0.2,1.5C14.8,21.4,14.7,21.9,14.6,22.4z M12.2,25.9
						l-2.6-3.5c0.2-0.2,0.3-0.4,0.4-0.6l4.3,1.2c-0.3,0.9-0.8,1.6-1.5,2.3C12.7,25.5,12.5,25.7,12.2,25.9z M8.5,23
						c0.2,0,0.4-0.1,0.6-0.2l2.6,3.5c-0.9,0.5-2,0.9-3.1,0.9L8.5,23z M8.2,22.3c-0.8,0-1.5-0.6-1.5-1.5c0-0.8,0.6-1.5,1.4-1.5
						c0.8,0,1.5,0.6,1.5,1.4C9.6,21.6,9,22.3,8.2,22.3z M4.8,26.3l2.4-3.5c0.2,0.1,0.4,0.1,0.6,0.2l0.1,4.2
						C6.8,27.1,5.7,26.8,4.8,26.3z M2,23.2l4.2-1.3c0.1,0.2,0.3,0.4,0.4,0.6L4.2,26c-0.2-0.2-0.4-0.3-0.6-0.5
						C2.9,24.8,2.4,24,2,23.2z M1.8,22.5c-0.1-0.5-0.2-1-0.2-1.5s0.1-1,0.2-1.5L6,20.7c0,0.1,0,0.1,0,0.2s0,0.2,0,0.4L1.8,22.5z"/>
				</g>
			</g>
			<g>
				<g>
					<path class="st0" d="M8.1,20C8.6,20,9,20.4,9,20.8c0,0.5-0.4,0.9-0.8,0.9c-0.5,0-0.9-0.4-0.9-0.9C7.3,20.4,7.7,20,8.1,20z"/>
				</g>
			</g>
		</g>
		<g>
			<g>
				<g>
					<path d="M8.2,28.8c-2.1,0-4.2-0.8-5.7-2.2C0.9,25.1,0,23.2,0,21.1s0.8-4.1,2.3-5.6s3.6-2.3,5.8-2.4h0.1c1.1,0,2.2,0.2,3.2,0.6
						c0.1,0,0.9,0.4,1.5,0.8c0.4,0.2,0.7,0.5,1,0.8c1.6,1.5,2.5,3.4,2.5,5.5s-0.8,4.1-2.3,5.6s-3.6,2.3-5.8,2.4H8.2z M8.2,14.1
						L8.2,14.1c-2,0-3.8,0.8-5.2,2.1c-1.3,1.3-2.1,3-2,4.8c0,1.8,0.8,3.5,2.2,4.8c1.4,1.2,3.1,1.9,5,1.9h0.1c1.9,0,3.7-0.8,5.1-2.1
						c1.3-1.3,2.1-3,2-4.8c0-1.8-0.8-3.5-2.2-4.8c-0.3-0.2-0.6-0.5-0.9-0.7c-0.5-0.3-1.3-0.7-1.4-0.7C10.1,14.3,9.2,14.1,8.2,14.1z"
						/>
				</g>
			</g>
			<g>
				<g>
					<path class="st0" d="M8.1,20C8.6,20,9,20.4,9,20.8c0,0.5-0.4,0.9-0.8,0.9c-0.5,0-0.9-0.4-0.9-0.9C7.3,20.4,7.7,20,8.1,20z"/>
				</g>
			</g>
		</g>
	</g>
	<g>
		<g>
			<g>
				<g>
					<path class="st1" d="M29.9,20.7c0,2.1,0.9,4,2.4,5.3c1.4,1.3,3.4,2.2,5.5,2.1c2.2,0,4.1-0.9,5.5-2.3c1.4-1.4,2.2-3.3,2.2-5.4
						s-0.9-3.9-2.4-5.3c-0.3-0.3-0.6-0.5-0.9-0.8c-0.6-0.4-1.5-0.8-1.5-0.8c-1-0.4-2-0.6-3.1-0.6c-2.2,0-4.1,0.9-5.5,2.3
						C30.7,16.8,29.9,18.7,29.9,20.7z M33.5,15.6L36,19c-0.2,0.2-0.3,0.4-0.4,0.7l-4.2-1.2c0.3-0.9,0.8-1.7,1.5-2.4
						C33.1,15.9,33.3,15.8,33.5,15.6z M37.2,18.3c-0.2,0-0.5,0.1-0.7,0.3L34,15.2c0.9-0.6,2-0.9,3.1-1L37.2,18.3z M40.7,14.9
						c0.1,0,0.2,0.1,0.3,0.2l-2.4,3.5c-0.2-0.1-0.4-0.2-0.7-0.2l-0.1-4.1c0.9,0,1.8,0.2,2.6,0.6l0,0C40.6,14.8,40.7,14.8,40.7,14.9
						L40.7,14.9z M43.9,18.3l-4.3,1.3c-0.1-0.3-0.3-0.5-0.5-0.7l2.4-3.5c0.1,0,0.1,0.1,0.2,0.1c0.2,0.2,0.4,0.3,0.6,0.5
						C43.1,16.6,43.6,17.4,43.9,18.3z M44.2,22.1l-4.4-1.2c0-0.1,0-0.2,0-0.4c0-0.1,0-0.1,0-0.2l4.3-1.3c0.1,0.5,0.2,1,0.2,1.6
						C44.4,21.1,44.3,21.6,44.2,22.1z M41.8,25.7l-2.6-3.6c0.2-0.2,0.3-0.4,0.4-0.6l4.4,1.2c-0.3,0.9-0.8,1.7-1.5,2.3
						C42.3,25.4,42,25.6,41.8,25.7z M38,22.8c0.2,0,0.4-0.1,0.6-0.2l2.6,3.6c-0.9,0.5-2,0.9-3.1,0.9L38,22.8z M37.7,22
						c-0.8,0-1.5-0.7-1.5-1.5s0.6-1.5,1.5-1.5c0.8,0,1.5,0.7,1.5,1.5C39.1,21.3,38.5,22,37.7,22z M34.2,26.2l2.5-3.6
						c0.2,0.1,0.4,0.1,0.6,0.2l0.1,4.3C36.2,27,35.2,26.7,34.2,26.2z M31.4,22.9l4.3-1.3c0.1,0.2,0.3,0.4,0.4,0.6l-2.5,3.6
						c-0.2-0.2-0.4-0.3-0.6-0.5C32.3,24.6,31.8,23.8,31.4,22.9z M31.2,22.3c-0.1-0.5-0.2-1-0.2-1.5s0.1-1,0.2-1.5l4.3,1.2
						c0,0.1,0,0.1,0,0.2s0,0.2,0,0.4L31.2,22.3z"/>
				</g>
			</g>
			<g>
				<g>
					<path class="st0" d="M37.6,19.6c0.5,0,0.9,0.4,0.9,0.9s-0.4,0.9-0.9,0.9s-0.9-0.4-0.9-0.9C36.8,20.1,37.2,19.7,37.6,19.6z"/>
				</g>
			</g>
		</g>
		<g>
			<g>
				<g>
					<path d="M37.7,28.7c-2.2,0-4.2-0.8-5.8-2.3s-2.5-3.5-2.5-5.6c0-2.2,0.8-4.2,2.4-5.7c1.5-1.5,3.6-2.4,5.8-2.4h0.1
						c1.1,0,2.2,0.2,3.2,0.6c0.1,0,1,0.4,1.6,0.8c0.4,0.2,0.7,0.5,1,0.8c1.6,1.5,2.5,3.5,2.5,5.7s-0.8,4.2-2.4,5.7
						C42.1,27.8,40,28.7,37.7,28.7L37.7,28.7z M37.7,13.6L37.7,13.6c-2.1,0-3.9,0.8-5.2,2.1c-1.4,1.3-2.1,3.1-2.1,5s0.8,3.6,2.2,4.9
						c1.4,1.3,3.2,2,5.1,2h0.1c2,0,3.8-0.8,5.1-2.1c1.4-1.3,2.1-3.1,2.1-5s-0.8-3.6-2.2-4.9c-0.3-0.3-0.6-0.5-0.9-0.7
						c-0.5-0.4-1.3-0.7-1.4-0.7C39.6,13.8,38.7,13.6,37.7,13.6z"/>
				</g>
			</g>
			<g>
				<g>
					<path class="st1" d="M37.6,19.6c0.5,0,0.9,0.4,0.9,0.9s-0.4,0.9-0.9,0.9s-0.9-0.4-0.9-0.9C36.8,20.1,37.2,19.7,37.6,19.6z"/>
				</g>
			</g>
		</g>
	</g>
	<g>
		<g>
			<path class="st2" d="M7.3,11.9c0-0.1,0.1-0.2,0.2-0.2c0.3,0,0.5,0,0.8,0c1.4,0,2.7,0.2,3.9,0.8c0,0,0.6,0.3,0.8,0.4
				c2.8,1.6,4.6,4.4,4.6,7.5c0,0.4,0,0.7-0.1,1.1c0,0.1-0.1,0.2-0.2,0.2h-0.1c-0.1,0-0.1,0-0.2-0.1c-0.2-0.2-0.5-0.4-0.7-0.9v-0.1
				v-0.3c0-2.7-1.5-5.1-3.9-6.5c0,0-0.5-0.3-0.8-0.4c-1.1-0.5-2.2-0.7-3.4-0.7H8.1c-0.5-0.1-0.8-0.4-1-0.6C7.3,12.1,7.3,12,7.3,11.9
				z"/>
		</g>
	</g>
	<g>
		<g>
			<g>
				<polygon class="st2" points="8.5,9.2 8.3,10.4 8.6,10.6 8.7,9.1 				"/>
			</g>
		</g>
		<g>
			<g>
				<g>
					<path class="st0" d="M11.5,10.6l0.1-0.4c0-0.1,0-0.1-0.1-0.1s-0.1,0-0.1,0.1l-0.1,0.4c0,0.1,0,0.1,0.1,0.1
						C11.4,10.7,11.4,10.7,11.5,10.6z"/>
				</g>
			</g>
			<g>
				<g>
					<path class="st0" d="M11.2,11.2c-0.4,0-0.9-0.1-1.1-0.2c-0.5-0.1-0.5-0.3-0.3-0.8C9.9,10,9.9,9.7,10,9.5c0-0.1,0.2-0.2,0.2-0.2
						l1.5,0.4c0.4,0.1,0.7,0.5,0.5,0.9C12,11,11.6,11.2,11.2,11.2z M11.5,10c-0.2-0.1-0.5,0.1-0.6,0.3c-0.1,0.2,0.1,0.5,0.3,0.6
						s0.5-0.1,0.6-0.3C11.9,10.3,11.8,10,11.5,10z"/>
				</g>
			</g>
		</g>
		<g>
			<g>
				<polygon class="st0" points="8.6,10.6 9.2,10.6 9.4,9.3 8.8,9.1 				"/>
			</g>
		</g>
	</g>
	<g>
		<g>
			<path class="st0" d="M13.3,4.9c0,0-1.4-0.9-3-1l0,0c-0.6,0-1.1-0.1-1.5-0.1S8,3.8,7.7,3.7c-0.2,0-0.5,0-0.5,0l0,0l0,0
				c0,0,0,0,0,0.1l1.1,5c0,0,0,0.1,0.1,0.1l3.5,0.2c0,0,0.1,0,0.1-0.1L13.3,4.9L13.3,4.9z"/>
		</g>
	</g>
	<g>
		<path class="st2" d="M27.7,18l5.7-0.1c0.1,0,0.1,0,0.2,0c0.4,0,1.3-0.1,2.3-0.5l0,0c0.6-0.3,1.3-0.8,1.9-1.6c0,0,0.2-0.3,0.5-0.7
			c0.8-1.1,1.6-1.6,2.4-1.7c0,0,1.4-0.4,3.5,1c0.2,0.1,0.4,0.1,0.6,0.1c0.3,0,0.5-0.1,0.8-0.2c-0.3-0.4-0.6-0.7-0.9-1l0,0l0.3-0.1
			l-0.1-1.6l-0.3-0.1l0,0v-0.1c0-0.1-0.1-0.1-0.1-0.1l-2.2,0.2c-1.4-0.7-3.1-1.1-4.9-1.1c-2.1,0-4,0.6-5.5,1.7l0,0
			c-0.9,0.7-1.4,1.1-1.7,1.4c-0.6,0.6-1.1,1.3-1.5,2C28.2,16.3,27.9,17.1,27.7,18z M37.9,13.2L37.9,13.2L37.9,13.2L37.9,13.2z"/>
	</g>
	<g>
		<g>
			<path class="st0" d="M34.2,5.7c0,0.3-0.3,0.6-0.6,0.6h-6.7c-0.3,0-0.6-0.3-0.6-0.6V5.5c0-0.3,0.3-0.6,0.6-0.6h6.7
				c0.3,0,0.6,0.3,0.6,0.6V5.7z"/>
		</g>
	</g>
	<g>
		<g>
			<path class="st3" d="M38,19.2l-1.2-1.1l-6.1-5.6l-1.1-1l0.2-0.6h0.1H30c0.1,0,0.2-0.1,0.3-0.2c0.1-0.1,0-0.3-0.2-0.4l-0.5-0.2
				L29,9.9l-0.5-0.2h-0.1c-0.1,0-0.2,0.1-0.3,0.2c-0.1,0.2,0,0.3,0.2,0.4h0.1l-3,7.6h-0.1c-0.2,0-0.5,0-0.7,0.1l-1.2-2h0.3
				c0.3,0,0.4-0.2,0.4-0.4c0-0.2-0.2-0.4-0.5-0.4h-2.1c-0.2,0-0.4,0.2-0.4,0.4c0,0.2,0.2,0.4,0.5,0.4h0.9l1.5,2.4
				c-0.3,0.2-0.5,0.5-0.6,0.8c-0.4,0-0.7-0.1-1.1-0.2c-0.3-0.1-0.6-0.2-0.9-0.4c-0.4-0.2-0.9-0.6-1.2-1.1c-0.4-0.5-0.7-1.1-1-1.9
				c-0.3-1.1-0.8-2.1-1.3-2.9c-0.8-1.3-1.7-2.2-2.4-2.9c-0.3-0.3-0.6-0.6-0.8-0.7l0.4-1c0,0,0,0,0-0.1L16,5l-1.5-0.3l-0.9,2.9
				l-1.1,2.9c0,0.1,0,0.1,0,0.2s0.1,0.1,0.1,0.1h0.1c-0.2,0.6-0.7,1.8-0.7,1.8l-0.8,2l0,0c-0.1,0.3-0.2,0.5-0.3,0.7
				c-0.5,1.2-1.2,2.4-2.1,3.4c-0.1,0.1-0.2,0.2-0.2,0.3c-0.1,0.2-0.3,0.3-0.4,0.5c-0.1,0.2-0.4,0.4-0.4,0.6s0.1,0.3,0.3,0.4
				c0.3,0.2,0.5,0,0.7-0.2c0.4-0.4,0.7-0.8,1-1.2c0.7-0.9,1.5-2.1,2-3.4c0.1-0.2,1.5-3.7,1.6-4.2c0.1-0.1,0.1-0.3,0.2-0.4h0.1
				c0,0,0,0,0.1,0S14,11,14,11l0.2-0.5c0.3,0.3,0.6,0.6,1,1c0.5,0.5,1,1.2,1.4,1.9c0.5,0.7,0.9,1.6,1.2,2.5c0.3,1.1,0.9,2,1.5,2.7
				c0.5,0.5,1,0.9,1.5,1.2c0.8,0.4,1.7,0.6,2.5,0.7h0.1c0.3,0.9,1.2,1.5,2.2,1.5c0.2,0,0.5,0,0.7-0.1l1.2,2h-0.3
				c-0.2,0-0.4,0.2-0.4,0.4c0,0.2,0.2,0.4,0.5,0.4h2.1c0.2,0,0.4-0.2,0.4-0.4c0-0.2-0.2-0.4-0.5-0.4h-0.8L27,21.5
				c0.4-0.3,0.6-0.8,0.7-1.2l1.4-0.1l1.2-0.1l7.5-0.4c0.2,0,0.3-0.1,0.4-0.3C38.2,19.5,38.1,19.3,38,19.2z M30.1,19.5h-0.4h-0.1
				l-2.1,0.1c-0.1-0.5-0.5-1-1-1.3l2.6-6l7.4,7L30.1,19.5z"/>
			<path class="st4" d="M27,25.6c-0.3,0-0.6-0.2-0.6-0.6c0-0.1,0.1-0.3,0.2-0.4c0.1-0.1,0.3-0.2,0.4-0.2h0.1l-1-1.7
				c-0.2,0.1-0.4,0.1-0.6,0.1l0,0c-1,0-1.9-0.6-2.2-1.5l0,0c-1-0.1-1.8-0.4-2.5-0.7c-0.6-0.3-1.1-0.7-1.6-1.2
				c-0.7-0.7-1.2-1.7-1.5-2.8c-0.3-0.9-0.6-1.7-1.1-2.5c-0.4-0.7-0.9-1.3-1.4-1.9c-0.3-0.3-0.6-0.6-0.9-0.9l-0.1,0.3
				c-0.1,0.1-0.2,0.2-0.3,0.2l0,0h-0.1v0.1c0,0.1-0.1,0.1-0.1,0.2c-0.2,0.5-1.5,4-1.6,4.2c-0.6,1.4-1.4,2.6-2,3.4
				c-0.4,0.5-0.7,0.9-1,1.2c-0.3,0.4-0.6,0.4-0.9,0.2H8.1C8,21,7.8,20.9,7.8,20.7c0-0.2,0.2-0.4,0.4-0.6L8.3,20
				c0.1-0.2,0.3-0.3,0.4-0.5c0.1-0.1,0.1-0.1,0.2-0.2L9,19.2c0.9-1.1,1.6-2.2,2-3.4c0.1-0.1,0.1-0.3,0.2-0.4c0-0.1,0.1-0.2,0.1-0.3
				l0,0l0.8-2l0,0c0-0.1,0.4-1.1,0.7-1.7c-0.1,0-0.1-0.1-0.1-0.1c0-0.1,0-0.2,0-0.3l1.1-2.9l0.9-2.9c0-0.1,0.1-0.1,0.1-0.1l1.5,0.3
				c0,0,0.1,0,0.1,0.1v0.1l-0.9,3c0,0,0,0,0,0.1l-0.7,0.9c0.3,0.2,0.5,0.4,0.8,0.7c0.9,0.9,1.7,1.9,2.4,2.9c0.6,0.9,1,1.9,1.3,2.9
				c0.2,0.7,0.5,1.4,0.9,1.9c0.3,0.4,0.7,0.8,1.2,1c0.3,0.2,0.6,0.3,0.9,0.4s0.6,0.2,1,0.2c0.1-0.2,0.3-0.5,0.5-0.7l-1.4-2.3h-0.8
				c-0.3,0-0.6-0.2-0.6-0.5c0-0.1,0.1-0.3,0.2-0.4c0.1-0.1,0.3-0.2,0.4-0.2h2.1c0.3,0,0.6,0.2,0.6,0.5c0,0.3-0.3,0.6-0.6,0.6l0,0
				l1,1.7c0.2-0.1,0.4-0.1,0.6-0.1l0,0l2.9-7.4l0,0c-0.1,0-0.2-0.1-0.3-0.2c0-0.1,0-0.2,0-0.3c0.1-0.2,0.2-0.3,0.4-0.3l0,0
				c0.1,0,0.1,0,0.2,0l1.5,0.6c0.1,0,0.2,0.1,0.3,0.2c0,0.1,0,0.2,0,0.3c-0.1,0.2-0.2,0.3-0.4,0.3l0,0c-0.1,0-0.1,0-0.1,0l-0.2,0.4
				l1,1l7.3,6.7c0.2,0.1,0.2,0.4,0.1,0.6c-0.1,0.2-0.3,0.3-0.5,0.4l-10,0.6c-0.1,0.4-0.3,0.8-0.7,1.2l1.4,2.3h0.7
				c0.3,0,0.6,0.2,0.6,0.5s-0.3,0.6-0.6,0.6L27,25.6L27,25.6z M26.1,22.5c0,0,0.1,0,0.1,0.1l1.2,2v0.1l-0.1,0.1H27
				c-0.1,0-0.2,0-0.2,0.1c-0.1,0.1-0.1,0.1-0.1,0.2c0,0.2,0.1,0.3,0.3,0.3v0.1v-0.1h2.1c0.2,0,0.3-0.1,0.3-0.3
				c0-0.2-0.1-0.3-0.3-0.3h-0.8c-0.1,0-0.1,0-0.1-0.1l-1.4-2.4c0-0.1,0-0.1,0-0.2c0.4-0.3,0.6-0.7,0.7-1.2c0-0.1,0.1-0.1,0.1-0.1
				l10.1-0.6c0.1,0,0.2-0.1,0.3-0.2c0-0.1,0-0.2-0.1-0.3L29.5,12c0,0-0.1-0.1,0-0.1l0.2-0.6c0-0.1,0.1-0.1,0.2-0.1H30c0,0,0,0,0.1,0
				c0.1,0,0.1,0,0.2-0.1V11l-0.1-0.1l-1.5-0.5c0,0,0,0-0.1,0c-0.1,0-0.1,0-0.2,0.1c0,0.1,0,0.1,0,0.1l0.1,0.1h0.1c0,0,0.1,0,0.1,0.1
				v0.1l-3,7.6c0,0.1-0.1,0.1-0.1,0.1s0,0-0.1,0l0,0c-0.2,0-0.4,0-0.7,0.1c-0.1,0-0.1,0-0.1-0.1l-1.2-2v-0.1l0.1-0.1h0.3
				c0.2,0,0.3-0.1,0.3-0.3c0-0.2-0.1-0.3-0.3-0.3h-2.1c-0.1,0-0.2,0-0.2,0.1c-0.1,0.1-0.1,0.1-0.1,0.2c0,0.2,0.1,0.3,0.3,0.3h0.9
				l0,0c0,0,0.1,0,0.1,0.1l1.5,2.4c0,0.1,0,0.1,0,0.2c-0.2,0.2-0.4,0.5-0.6,0.7c0,0.1-0.1,0.1-0.1,0.1c-0.4-0.1-0.8-0.1-1.1-0.2
				s-0.7-0.2-1-0.4c-0.5-0.3-0.9-0.6-1.3-1.1c-0.4-0.5-0.7-1.2-1-2c-0.3-1-0.7-1.9-1.3-2.9c-0.8-1.3-1.7-2.3-2.4-2.9
				c-0.3-0.3-0.6-0.6-0.8-0.7c0,0-0.1-0.1,0-0.1l0.3-1l0,0l0.9-2.9l-1.2-0.2l-1.1,2.8l-1.1,2.9c0,0,0,0,0,0.1c0,0,0,0,0.1,0l0,0
				c0,0,0.1,0,0.1,0.1v0.1c-0.5,1.2-0.6,1.7-0.7,1.8l0,0l-0.8,2l0,0c0,0.1-0.1,0.2-0.1,0.3C11,15.7,11,15.9,10.9,16
				c-0.5,1.2-1.2,2.3-2.1,3.4v0.2c-0.1,0.1-0.1,0.1-0.2,0.2c-0.1,0.2-0.3,0.3-0.4,0.5l-0.1,0.1c-0.1,0.1-0.3,0.3-0.3,0.4
				S7.9,20.9,8,21h0.1h0.1c0.1,0,0.2,0,0.4-0.3c0.3-0.4,0.7-0.8,1-1.2c0.6-0.8,1.4-2,2-3.4c0.1-0.2,1.4-3.6,1.6-4.2
				c0-0.1,0.1-0.2,0.1-0.2c0-0.1,0-0.1,0.1-0.2c0-0.1,0.1-0.1,0.2-0.1h0.1l0,0c0,0,0.1,0,0.1-0.1l0.2-0.5c0,0,0-0.1,0.1-0.1h0.1
				c0.3,0.3,0.7,0.6,1,1c0.5,0.6,1,1.2,1.5,1.9c0.5,0.8,0.9,1.7,1.2,2.6c0.3,1.1,0.8,2,1.4,2.7c0.4,0.5,0.9,0.9,1.5,1.2
				c0.7,0.4,1.5,0.6,2.4,0.7l0,0l0,0c0.1,0,0.1,0,0.1,0.1c0.3,0.8,1.1,1.4,2,1.4l0,0C25.6,22.6,25.9,22.6,26.1,22.5L26.1,22.5z
				 M27.6,20.2c-0.1,0-0.1,0-0.1-0.1c-0.1-0.5-0.5-0.9-0.9-1.2c-0.1,0-0.1-0.1-0.1-0.2l2.6-6l0.1-0.1h0.1l7.4,7v0.1l-0.1,0.1
				l-6.5,0.1h-0.5L27.6,20.2L27.6,20.2z M26.8,18.7c0.4,0.3,0.8,0.7,0.9,1.2l2.4-0.1l6.2-0.1L29.2,13L26.8,18.7z"/>
		</g>
	</g>
	<g>
		<g>
			<path d="M24.2,16.1c0,0.3-0.3,0.5-0.6,0.5h-2.4c-0.3,0-0.6-0.2-0.6-0.5c0-0.3,0.3-0.5,0.6-0.5h2.4C23.9,15.6,24.2,15.8,24.2,16.1
				z"/>
		</g>
	</g>
	<g>
		<g>
			<path d="M30,25c0,0.3-0.3,0.5-0.6,0.5H27c-0.3,0-0.6-0.2-0.6-0.5s0.3-0.5,0.6-0.5h2.4C29.7,24.5,30,24.7,30,25z"/>
		</g>
	</g>
	<g>
		<g>
			<path d="M34.3,5.8c0,0.4-0.3,0.7-0.6,0.7h-6.8c-0.3,0-0.6-0.3-0.6-0.7V5.6c0-0.4,0.3-0.7,0.6-0.7h6.8c0.3,0,0.6,0.3,0.6,0.7V5.8z
				"/>
		</g>
	</g>
	<g>
		<g>
			<path class="st0" d="M12.9,2.3c0,0-0.5,2.1,1.5,3.2l1,0.5c0.7,0.4,1.2-0.4,1.6-0.8c0.5-0.6,0.7-0.8-0.1-1.3l-3-1.7
				C13.9,2.2,13,1.5,12.9,2.3z"/>
		</g>
	</g>
	<g>
		<g>
			<g>
				<path class="st2" d="M12.8,2.5c0,0-0.2-0.9,0.5-0.9c0,0,0.2,0,1.2,0.6l2.9,1.7c0,0,0.4,0.2-0.2,1C17.3,4.9,13.2,2,12.8,2.5z"/>
			</g>
		</g>
		<g>
			<g>
				<path class="st2" d="M12.9,1.9c0,0,0.3-1.3,2.3-0.4c0,0,1.4,0.8,2.3,1.8c0,0,0.6,0.7-0.2,1.6L17.1,4l-3.5-1.7L12.9,1.9z"/>
			</g>
		</g>
	</g>
	<g>
		<g>
			<path class="st3" d="M15.9,3.1c-0.1,0-0.3-0.1-0.4-0.2c-0.2-0.2-0.2-0.5,0-0.7l1.7-1.5c0.1-0.1,1.2-0.8,3.5-0.1
				C21,0.7,21.1,1,21,1.2c-0.1,0.3-0.4,0.4-0.6,0.3c-1.8-0.6-2.6-0.1-2.6-0.1l-1.6,1.4C16.1,3,16,3.1,15.9,3.1z"/>
			<path class="st4" d="M15.9,3.2c-0.2,0-0.4-0.1-0.5-0.2c-0.2-0.3-0.2-0.7,0.1-0.9l1.7-1.5c0.1-0.1,0.7-0.4,1.7-0.4
				c0.6,0,1.2,0.1,1.9,0.3c0.3,0.1,0.5,0.5,0.4,0.8c-0.1,0.3-0.5,0.5-0.8,0.4c-0.6-0.2-1.1-0.3-1.6-0.3c-0.6,0-0.9,0.2-0.9,0.2
				L16.3,3C16.2,3.1,16.1,3.2,15.9,3.2z M18.9,0.4c-1,0-1.5,0.3-1.5,0.4l-1.7,1.5c-0.2,0.1-0.2,0.4,0,0.5c0.1,0.2,0.4,0.2,0.5,0
				l1.6-1.4c0,0,0.3-0.2,1.1-0.2c0.5,0,1,0.1,1.6,0.3c0.2,0.1,0.4-0.1,0.5-0.3c0.1-0.2-0.1-0.4-0.3-0.5C20.1,0.5,19.4,0.4,18.9,0.4z
				"/>
		</g>
	</g>
	<g>
		<g>
			<path d="M22,2.3c-0.1,0-0.2,0-0.2,0L19,1.6c-0.5-0.1-0.7-0.6-0.6-1c0.1-0.5,0.6-0.7,1-0.6l2.8,0.7c0.5,0.1,0.7,0.6,0.6,1
				C22.7,2.1,22.4,2.3,22,2.3z"/>
		</g>
	</g>
	<g>
		<g>
			<polyline class="st5" points="16.9,13.8 16.9,13.8 16.9,13.8 16.9,13.8 			"/>
		</g>
		<g>
			<path class="st5" d="M16.7,12.5L16.7,12.5L16.7,12.5L16.7,12.5L16.7,12.5c0.1,0.1,0.1,0.1,0.1,0.1h0.1c0-0.1,0-0.1-0.1-0.2h-0.1
				C16.7,12.4,16.6,12.4,16.7,12.5C16.6,12.5,16.7,12.5,16.7,12.5 M16.8,12.5L16.8,12.5L16.8,12.5L16.8,12.5L16.8,12.5
				C16.7,12.5,16.7,12.5,16.8,12.5C16.7,12.5,16.8,12.5,16.8,12.5L16.8,12.5L16.8,12.5 M16.8,12.5L16.8,12.5L16.8,12.5
				C16.8,12.5,16.9,12.5,16.8,12.5L16.8,12.5 M16.9,12.5L16.9,12.5L16.9,12.5L16.9,12.5L16.9,12.5 M16.7,12.4
				C16.8,12.4,16.8,12.4,16.7,12.4C16.8,12.4,16.8,12.4,16.7,12.4C16.8,12.4,16.7,12.4,16.7,12.4L16.7,12.4L16.7,12.4L16.7,12.4"/>
		</g>
		<g>
			<path class="st5" d="M17.3,13.3h0.1c0-0.1,0-0.1-0.1-0.2h-0.1c0,0-0.1,0-0.1,0.1c0,0,0,0,0,0.1l0,0
				C17.1,13.3,17.2,13.3,17.3,13.3C17.2,13.2,17.2,13.2,17.3,13.3C17.2,13.2,17.2,13.3,17.3,13.3C17.2,13.3,17.2,13.3,17.3,13.3
				 M17.3,13.2L17.3,13.2L17.3,13.2L17.3,13.2C17.2,13.2,17.2,13.2,17.3,13.2C17.2,13.2,17.2,13.2,17.3,13.2
				C17.2,13.2,17.2,13.2,17.3,13.2L17.3,13.2L17.3,13.2 M17.3,13.2L17.3,13.2L17.3,13.2L17.3,13.2L17.3,13.2 M17.4,13.3
				C17.4,13.3,17.4,13.2,17.4,13.3C17.4,13.2,17.4,13.2,17.4,13.3C17.4,13.2,17.4,13.2,17.4,13.3C17.4,13.2,17.4,13.3,17.4,13.3
				 M17.2,13.2C17.2,13.1,17.2,13.1,17.2,13.2C17.3,13.1,17.3,13.2,17.2,13.2C17.3,13.1,17.3,13.1,17.2,13.2
				C17.2,13.1,17.2,13.1,17.2,13.2C17.2,13.1,17.2,13.2,17.2,13.2L17.2,13.2"/>
		</g>
		<g>
			<path class="st5" d="M17.3,13.8C17.4,13.8,17.4,13.8,17.3,13.8C17.4,13.8,17.4,13.8,17.3,13.8L17.3,13.8L17.3,13.8L17.3,13.8
				C17.3,13.7,17.3,13.7,17.3,13.8C17.3,13.7,17.3,13.7,17.3,13.8C17.3,13.7,17.3,13.7,17.3,13.8C17.3,13.7,17.2,13.7,17.3,13.8
				C17.2,13.8,17.2,13.8,17.3,13.8L17.3,13.8L17.3,13.8L17.3,13.8L17.3,13.8L17.3,13.8L17.3,13.8L17.3,13.8L17.3,13.8L17.3,13.8
				L17.3,13.8L17.3,13.8L17.3,13.8"/>
		</g>
		<g>
			<path class="st5" d="M17.3,14.4L17.3,14.4c0-0.1,0-0.2,0-0.3c0,0,0.1,0,0.2,0l0,0l0,0c-0.1,0-0.1,0-0.2,0l0,0c0,0,0,0,0.1,0l0,0
				l0,0l0,0c0,0,0,0-0.1,0c-0.1,0-0.2,0-0.2,0.1l0,0l0,0c0.1,0,0.1,0,0.1,0C17.2,14.2,17.2,14.3,17.3,14.4L17.3,14.4
				C17.2,14.4,17.3,14.4,17.3,14.4L17.3,14.4"/>
		</g>
		<g>
			<path class="st5" d="M17.2,13.8L17.2,13.8c-0.1,0-0.1,0-0.2,0c0,0,0,0-0.1,0l0,0l0,0c0,0,0,0,0.1,0
				C17.1,13.9,17.2,13.9,17.2,13.8L17.2,13.8"/>
		</g>
		<g>
			<polyline class="st5" points="17.6,14.3 17.6,14.3 17.6,14.3 17.6,14.3 			"/>
		</g>
		<g>
			<path class="st5" d="M17.6,14.7L17.6,14.7c-0.1-0.1-0.1-0.2-0.1-0.3l0,0c0.1,0,0.1,0.1,0.2,0.1l0,0l0,0l0,0l0,0
				c0-0.1-0.1-0.1-0.1-0.1h-0.1l0,0l0,0l0,0v0.1C17.4,14.6,17.5,14.7,17.6,14.7C17.5,14.7,17.6,14.7,17.6,14.7 M17.5,14.4L17.5,14.4
				C17.5,14.4,17.6,14.4,17.5,14.4C17.6,14.4,17.5,14.4,17.5,14.4C17.5,14.3,17.5,14.3,17.5,14.4"/>
		</g>
		<g>
			<path class="st5" d="M17.1,13.7v-0.1h0.1l0,0l0,0c-0.1,0-0.1,0-0.2,0l0,0l0,0h-0.1l0,0l0,0l0,0l0,0C16.9,13.6,17,13.7,17.1,13.7
				L17.1,13.7L17.1,13.7C17,13.8,17,13.8,17.1,13.7C17.1,13.8,17.1,13.8,17.1,13.7L17.1,13.7 M17,13.7L17,13.7c0,0-0.1,0-0.1-0.1
				C16.9,13.6,16.9,13.6,17,13.7L17,13.7L17,13.7L17,13.7"/>
		</g>
		<g>
			<polyline class="st5" points="16.9,13.8 16.9,13.8 16.9,13.8 16.9,13.8 			"/>
		</g>
		<g>
			<path class="st5" d="M17,13.3L17,13.3C17,13.3,17,13.2,17,13.3C16.9,13.3,16.9,13.3,17,13.3c-0.2,0.1-0.3,0-0.5-0.1
				c-0.1-0.1-0.2-0.2-0.2-0.4c0-0.1,0.1-0.2,0.2-0.2c0,0,0,0,0-0.1l0,0l0,0c-0.1,0.1-0.2,0.2-0.2,0.3c0,0.1,0.1,0.3,0.2,0.4
				C16.6,13.4,16.8,13.4,17,13.3L17,13.3L17,13.3"/>
		</g>
		<g>
			<path class="st5" d="M17.9,14.5"/>
		</g>
		<g>
			<path class="st5" d="M17.9,14.8L17.9,14.8c0.1-0.1,0.1-0.1,0.1-0.2s0-0.1,0-0.2c0,0,0,0,0-0.1s0,0,0,0c0,0.1,0,0.2,0,0.2
				C18.1,14.7,18,14.8,17.9,14.8L17.9,14.8L17.9,14.8z"/>
		</g>
		<g>
			<path class="st5" d="M17.8,14.7C17.8,14.7,17.9,14.6,17.8,14.7C17.9,14.6,17.9,14.6,17.8,14.7c0.1-0.1,0.1-0.1,0.1-0.2l0,0l0,0
				v0.1C18,14.7,17.9,14.7,17.8,14.7C17.9,14.7,17.9,14.7,17.8,14.7L17.8,14.7z"/>
		</g>
		<g>
			<path class="st5" d="M17.9,14.5"/>
		</g>
	</g>
	<g>
		<g>
			<polyline class="st5" points="37.2,13.7 37.2,13.7 37.2,13.7 37.2,13.7 			"/>
		</g>
		<g>
			<path class="st5" d="M34.3,14C34.3,14,34.4,14,34.3,14C34.4,14,34.4,14,34.3,14C34.4,13.9,34.4,13.9,34.3,14
				c0.1-0.1,0.1-0.1,0.1-0.1l0.1-0.1c0.1-0.1,0.1-0.2,0-0.3c-0.1-0.1-0.3,0-0.4,0.1C34,13.7,34,13.8,34,13.8c0,0.1,0.1,0.2,0.2,0.2
				C34.2,14.1,34.3,14,34.3,14 M34.4,13.7L34.4,13.7L34.4,13.7C34.4,13.8,34.4,13.8,34.4,13.7c0,0.1,0,0.1,0,0.1s0,0-0.1,0
				C34.3,13.8,34.3,13.8,34.4,13.7C34.3,13.7,34.3,13.7,34.4,13.7C34.3,13.7,34.3,13.7,34.4,13.7 M34.3,13.6L34.3,13.6L34.3,13.6
				L34.3,13.6L34.3,13.6 M34.5,13.6C34.5,13.6,34.4,13.6,34.5,13.6C34.4,13.6,34.4,13.6,34.5,13.6C34.4,13.6,34.4,13.6,34.5,13.6
				C34.4,13.6,34.5,13.6,34.5,13.6 M34.1,13.8c0-0.1,0-0.1,0.1-0.2C34.2,13.7,34.1,13.7,34.1,13.8L34.1,13.8
				c0.1,0.1,0.1,0.1,0.2,0.1c0,0,0,0-0.1,0C34.1,14,34.1,13.9,34.1,13.8"/>
		</g>
		<g>
			<path class="st5" d="M36.2,12.9c0.1-0.1,0.1-0.2,0-0.3c-0.1-0.1-0.3,0-0.4,0.1c-0.1,0.1-0.1,0.2-0.1,0.2c0,0.1,0.1,0.2,0.2,0.2
				c0,0,0.1,0,0.1-0.1l0,0c0,0,0.1-0.1,0-0.1l0,0l0,0C36.1,13,36.2,13,36.2,12.9 M36,12.8L36,12.8C36,12.9,36,12.9,36,12.8
				C36.1,12.9,36.1,12.9,36,12.8c0,0.1,0,0.1,0,0.1s0,0-0.1,0C36,12.9,36,12.9,36,12.8C36,12.9,36,12.8,36,12.8L36,12.8 M36,12.8
				L36,12.8L36,12.8C36,12.7,36,12.7,36,12.8C36,12.7,36,12.7,36,12.8 M36.2,12.7C36.1,12.7,36.1,12.7,36.2,12.7
				C36.1,12.7,36.1,12.7,36.2,12.7C36.1,12.7,36.1,12.7,36.2,12.7C36.1,12.7,36.1,12.7,36.2,12.7 M35.9,13.1c-0.1,0-0.1-0.1-0.1-0.1
				c0-0.1,0-0.1,0.1-0.2v0.1V13C35.8,13,35.9,13.1,35.9,13.1L35.9,13.1"/>
		</g>
		<g>
			<path class="st5" d="M37.3,12.8L37.3,12.8C37.2,12.8,37.2,12.8,37.3,12.8L37.3,12.8L37.3,12.8C37.2,12.8,37.2,12.8,37.3,12.8
				c-0.1,0-0.1,0-0.2,0l0,0l0,0c0,0,0,0.1,0.1,0.1l0,0l0,0l0,0l0,0l0,0l0,0l0,0l0,0c0,0,0,0,0-0.1C37.4,13,37.4,13,37.3,12.8
				C37.4,12.9,37.4,12.9,37.3,12.8C37.3,12.9,37.3,12.9,37.3,12.8C37.3,12.9,37.3,12.9,37.3,12.8"/>
		</g>
		<g>
			<path class="st5" d="M38.6,13.1L38.6,13.1c-0.3,0-0.4,0-0.6-0.1c0-0.1,0.1-0.2,0.1-0.3v-0.1H38c-0.1,0.1-0.1,0.3-0.1,0.4v-0.1
				v-0.1l0,0c0,0,0,0-0.1,0c0,0-0.1,0-0.1,0.1V13c0,0.2,0,0.4,0.1,0.5c0,0,0,0,0.1,0c0,0,0.1,0,0.1-0.1s0-0.2,0.1-0.3
				c0.2,0.1,0.4,0.1,0.6,0.1h0.1C38.6,13.2,38.7,13.2,38.6,13.1C38.7,13.1,38.6,13.1,38.6,13.1"/>
		</g>
		<g>
			<path class="st5" d="M37.3,13.1c0,0-0.1,0.1,0,0.1c0,0.1,0.1,0.2,0.1,0.3c0,0.1,0,0.1,0,0.2c0,0,0.1,0.1,0.1,0c0,0,0.1-0.1,0-0.1
				c0-0.1,0-0.1,0-0.2S37.5,13.2,37.3,13.1L37.3,13.1"/>
		</g>
		<g>
			<polyline class="st5" points="38.4,12.5 38.4,12.5 38.4,12.5 38.4,12.5 			"/>
		</g>
		<g>
			<path class="st5" d="M39.3,12.6L39.3,12.6c-0.2,0.1-0.4,0.2-0.6,0.2h-0.1c0.1-0.1,0.2-0.2,0.1-0.3l0,0l0,0c0,0,0,0,0-0.1
				l-0.1-0.1c-0.1,0-0.2,0.1-0.2,0.2c-0.1,0.1-0.1,0.2,0,0.3c0,0,0,0,0,0.1l0,0h0.1c0.1,0,0.1,0.1,0.2,0.1c0.2,0,0.5-0.2,0.6-0.3
				C39.3,12.7,39.3,12.6,39.3,12.6 M38.6,12.6L38.6,12.6C38.6,12.5,38.6,12.5,38.6,12.6C38.6,12.5,38.6,12.6,38.6,12.6L38.6,12.6"/>
		</g>
		<g>
			<path class="st5" d="M37.1,13.4c-0.1-0.1-0.2,0-0.3,0.1c0-0.1,0-0.2,0-0.3c0,0,0-0.1-0.1-0.1c0,0-0.1,0-0.1,0.1
				c0,0.2,0,0.3,0,0.4v0.1l0,0c0,0.1,0,0.2,0.1,0.3l0,0c0,0,0,0.1,0.1,0.1l0,0h0.1c0.1-0.1,0.2-0.2,0.3-0.3l0,0l0,0
				C37.2,13.7,37.2,13.6,37.1,13.4C37.2,13.5,37.1,13.4,37.1,13.4L37.1,13.4 M37,13.7L37,13.7c0,0.1-0.1,0.2-0.1,0.2
				C36.9,13.8,36.9,13.7,37,13.7c0-0.1,0.1-0.1,0.1-0.1l0,0C37,13.6,37,13.6,37,13.7"/>
		</g>
		<g>
			<polyline class="st5" points="37.2,13.7 37.2,13.7 37.2,13.7 37.2,13.7 			"/>
		</g>
		<g>
			<path class="st5" d="M36.1,13.5L36.1,13.5c0,0-0.1,0.1,0,0.1l0,0c0.1,0.3,0,0.6-0.2,0.9c-0.2,0.2-0.5,0.3-0.8,0.3
				c-0.2,0-0.4-0.2-0.5-0.4h-0.1c0,0,0,0,0,0.1c0,0,0,0,0,0.1c0.1,0.3,0.4,0.5,0.7,0.5s0.7-0.1,0.9-0.4c0.3-0.3,0.4-0.6,0.2-1l0,0
				C36.2,13.5,36.1,13.4,36.1,13.5"/>
		</g>
		<g>
			<path class="st5" d="M38.9,11.9"/>
		</g>
		<g>
			<path class="st5" d="M39.6,11.9C39.6,11.9,39.5,11.9,39.6,11.9c-0.1-0.2-0.2-0.3-0.3-0.4s-0.2-0.1-0.4,0c0,0-0.1,0-0.1-0.1
				c0,0,0-0.1,0.1-0.1c0.2,0,0.3,0,0.5,0.1s0.3,0.2,0.3,0.4C39.7,11.8,39.7,11.9,39.6,11.9L39.6,11.9z"/>
		</g>
		<g>
			<path class="st5" d="M39.3,12L39.3,12c-0.1-0.1-0.1-0.2-0.2-0.2c-0.1,0-0.1,0-0.2,0c0,0-0.1,0-0.1-0.1c0,0,0-0.1,0.1-0.1
				s0.2,0,0.3,0c0.1,0.1,0.2,0.1,0.2,0.2S39.4,12,39.3,12C39.4,12,39.3,12,39.3,12z"/>
		</g>
		<g>
			<path class="st5" d="M38.9,11.9"/>
		</g>
	</g>
	<g>
		<path d="M30.5,11.2c-0.1,0.2-0.2,0.4-0.5,0.3l-1.9-0.6c-0.2-0.1-0.3-0.3-0.2-0.5l0,0c0.1-0.2,0.2-0.4,0.5-0.3l1.9,0.6
			C30.5,10.7,30.6,11,30.5,11.2L30.5,11.2z"/>
	</g>
</g>
</svg>
